<?xml version="1.0" encoding="utf-8"?>
<!-- Generator: Adobe Illustrator 24.1.2, SVG Export Plug-In . SVG Version: 6.00 Build 0)  -->
<svg version="1.1" id="Layer_1" xmlns="http://www.w3.org/2000/svg" xmlns:xlink="http://www.w3.org/1999/xlink" x="0px" y="0px"
	 viewBox="0 0 60 60" style="enable-background:new 0 0 60 60;" xml:space="preserve">
<style type="text/css">
	.st0{fill:#5B6984;}
	.st1{fill:none;stroke:#5B6984;}
	.st2{fill:none;stroke:#FFFFFF;stroke-width:2;stroke-linecap:round;}
</style>
<path class="st0" d="M49,27v6c0,4.4-3.6,8-8,8H19c-4.4,0-8-3.6-8-8v-6c0-4.4,3.6-8,8-8h22C45.4,19,49,22.6,49,27z"/>
<path class="st1" d="M51.5,26v8c0,5.2-4.3,9.5-9.5,9.5H18c-5.2,0-9.5-4.3-9.5-9.5v-8c0-5.2,4.3-9.5,9.5-9.5h24
	C47.2,16.5,51.5,20.8,51.5,26z"/>
<line class="st2" x1="30" y1="38" x2="30" y2="22"/>
<line class="st2" x1="33" y1="35" x2="33" y2="25"/>
<line class="st2" x1="24" y1="32" x2="24" y2="28"/>
<line class="st2" x1="27" y1="35" x2="27" y2="25"/>
<line class="st2" x1="36" y1="32" x2="36" y2="28"/>
</svg>
