<?xml version="1.0" encoding="utf-8"?>
<!-- Generator: Adobe Illustrator 24.1.2, SVG Export Plug-In . SVG Version: 6.00 Build 0)  -->
<svg version="1.1" id="Layer_1" xmlns="http://www.w3.org/2000/svg" xmlns:xlink="http://www.w3.org/1999/xlink" x="0px" y="0px"
	 viewBox="0 0 59.8 59.8" style="enable-background:new 0 0 59.8 59.8;" xml:space="preserve">
<style type="text/css">
	.st0{fill:none;stroke:#5B6984;stroke-width:1.2057;}
	.st1{fill:none;stroke:#5B6984;stroke-width:0.9546;}
	.st2{fill:#5B6984;}
	.st3{fill:none;stroke:#FFFFFF;stroke-width:2.2255;stroke-linecap:round;}
</style>
<path class="st0" d="M45.3,50.6H14.7c-2.9,0-5.2-2.3-5.2-5.2V14.8c0-2.9,2.3-5.2,5.2-5.2h30.6c2.9,0,5.2,2.3,5.2,5.2v30.6
	C50.5,48.3,48.2,50.6,45.3,50.6z"/>
<path class="st1" d="M45.3,35.3H14.7c-2.9,0-5.2-2.3-5.2-5.2V14.8c0-2.9,2.3-5.2,5.2-5.2h30.6c2.9,0,5.2,2.3,5.2,5.2v15.3
	C50.5,33,48.2,35.3,45.3,35.3z"/>
<path class="st2" d="M44,33.7H16c-2.3,0-4.1-1.8-4.1-4.1V15.9c0-2.3,1.8-4.1,4.1-4.1H44c2.3,0,4.1,1.8,4.1,4.1v13.7
	C48.1,31.9,46.2,33.7,44,33.7z"/>
<g>
	<circle class="st2" cx="14" cy="39.1" r="0.9"/>
	<circle class="st2" cx="17.5" cy="39.1" r="0.9"/>
	<circle class="st2" cx="14" cy="45.2" r="0.9"/>
	<circle class="st2" cx="17.5" cy="45.2" r="0.9"/>
	<circle class="st2" cx="15.8" cy="42.2" r="0.9"/>
	<circle class="st2" cx="19.3" cy="42.2" r="0.9"/>
	<circle class="st2" cx="21.1" cy="39.1" r="0.9"/>
	<circle class="st2" cx="21.1" cy="45.2" r="0.9"/>
	<circle class="st2" cx="22.8" cy="42.2" r="0.9"/>
	<circle class="st2" cx="24.6" cy="39.1" r="0.9"/>
	<circle class="st2" cx="24.6" cy="45.2" r="0.9"/>
	<circle class="st2" cx="26.4" cy="42.2" r="0.9"/>
	<circle class="st2" cx="28.1" cy="39.1" r="0.9"/>
	<circle class="st2" cx="28.1" cy="45.2" r="0.9"/>
	<circle class="st2" cx="29.9" cy="42.2" r="0.9"/>
	<circle class="st2" cx="31.7" cy="39.1" r="0.9"/>
	<circle class="st2" cx="31.7" cy="45.2" r="0.9"/>
	<circle class="st2" cx="33.4" cy="42.2" r="0.9"/>
	<circle class="st2" cx="35.2" cy="39.1" r="0.9"/>
	<circle class="st2" cx="35.2" cy="45.2" r="0.9"/>
	<circle class="st2" cx="37" cy="42.2" r="0.9"/>
	<circle class="st2" cx="38.7" cy="39.1" r="0.9"/>
	<circle class="st2" cx="38.7" cy="45.2" r="0.9"/>
	<circle class="st2" cx="40.5" cy="42.2" r="0.9"/>
	<circle class="st2" cx="42.3" cy="39.1" r="0.9"/>
	<circle class="st2" cx="42.3" cy="45.2" r="0.9"/>
	<circle class="st2" cx="44" cy="42.2" r="0.9"/>
	<circle class="st2" cx="45.8" cy="39.1" r="0.9"/>
	<circle class="st2" cx="45.8" cy="45.2" r="0.9"/>
</g>
<g>
	<line class="st3" x1="30" y1="31.6" x2="30" y2="13.8"/>
	<line class="st3" x1="33.3" y1="28.3" x2="33.3" y2="17.2"/>
	<line class="st3" x1="23.3" y1="25" x2="23.3" y2="20.5"/>
	<line class="st3" x1="26.7" y1="28.3" x2="26.7" y2="17.2"/>
	<line class="st3" x1="36.7" y1="25" x2="36.7" y2="20.5"/>
</g>
</svg>
