<svg xmlns="http://www.w3.org/2000/svg" xmlns:xlink="http://www.w3.org/1999/xlink" width="400" height="210" viewBox="0 0 400 210"><defs><style>.a{fill:none;clip-rule:evenodd;}.b{fill:#8ce0fe;}.c{fill:#c5cfd6;}.d{fill:#f2f2f2;}.e{fill:#354050;}.f{fill:#fff;}.g,.s{fill:#e6f0fc;}.g,.h,.i,.l,.p,.s{fill-rule:evenodd;}.h,.k{fill:#89c5cc;}.i{fill:#c1dee2;}.j{clip-path:url(#a);}.l{fill:#5b6984;opacity:0.15;}.m{fill:#ad500b;}.n{fill:#6d3400;}.o{fill:#8c4103;}.p,.r{fill:#69a1ac;}.q{clip-path:url(#b);}.s{opacity:0.4;}</style><clipPath id="a"><path class="a" d="M255.17,144.12a172.67,172.67,0,0,0,19.19-1.25c11.8-1.35,22.69-3.68,22.69-3.68l-.31-33.59s-29.82,4-43.26,4.62Z"/></clipPath><clipPath id="b"><path class="a" d="M248.34,144.66a171.48,171.48,0,0,0,17.88-7.09c10.81-4.92,20.45-10.48,20.45-10.48L276.05,95.22s-27.15,13-39.74,17.7Z"/></clipPath></defs><title>Mycroft-Supporter_illu</title><path class="b" d="M393.13,82.51c23.62,53-16.35,74.69-124.16,101.31S17.15,227.22,2.41,167.56,51.44,34.71,159.24,8.09,368.11,26.38,393.13,82.51Z"/><rect class="c" x="12.55" y="158.16" width="384.88" height="19.4"/><rect class="d" x="40.71" y="177.56" width="325.95" height="31.65"/><path class="d" d="M69.71,158.2a19.27,19.27,0,0,1-4.43-.32,3,3,0,0,1-2.36-3c0-.4-.49-4.82-1.08-8.06-6.74-4.05-10.15-9.68-10.15-16.74a19.83,19.83,0,0,1,.5-4.55,1.21,1.21,0,0,1,0-.19c2-12.71,21.22-23.59,45.62-25.86,2.57-.24,5.76-.37,9.73-.4V97.48a1.33,1.33,0,0,1,.37-.93l.71-.74a1.36,1.36,0,0,1,.91-.42s4.09-.18,10.18-.18,10.5.18,10.54.18a1.42,1.42,0,0,1,.87.37l.78.75a1.32,1.32,0,0,1,.42,1v1.67c5.9.09,9.53.26,12,.56,23.58,2.75,41.74,13.19,44.15,25.39a1.64,1.64,0,0,1,0,.22,19.59,19.59,0,0,1,.54,4.74c0,7.54-3.92,13.43-11.65,17.53-.51,3.07-.88,6.69-.91,7.12a3,3,0,0,1-2.36,3,18.17,18.17,0,0,1-4.43.34,21.06,21.06,0,0,1-5-.58c-.51-.12-2.14-.49-2.46-1.66a7.2,7.2,0,0,0-1.64-2.5l-.17-.19c-10.11,2-23.25,2.89-40.14,2.89-17.34,0-30.73-1-40.91-3a5.37,5.37,0,0,0-.53.54,7.26,7.26,0,0,0-1.6,2.41c-.33,1.21-1.94,1.63-2.47,1.76A21.87,21.87,0,0,1,69.71,158.2Z"/><ellipse class="e" cx="120.37" cy="129.26" rx="63.64" ry="21.42"/><path class="f" d="M74.33,141.53a12,12,0,1,1,12-12A12,12,0,0,1,74.33,141.53Zm0-20.46a8.45,8.45,0,1,0,8.45,8.45A8.45,8.45,0,0,0,74.33,121.07Z"/><path class="f" d="M165.2,141.53a12,12,0,1,1,12-12A12,12,0,0,1,165.2,141.53Zm0-20.46a8.45,8.45,0,1,0,8.45,8.45A8.46,8.46,0,0,0,165.2,121.07Z"/><path class="f" d="M130.52,140.16H109a1.77,1.77,0,0,1-1-.3L102.09,136a1.78,1.78,0,0,1,1-3.27h33.38a1.79,1.79,0,0,1,1,3.28l-5.94,3.88A1.78,1.78,0,0,1,130.52,140.16Z"/><path class="g" d="M315.4,158.12H231.47a12.79,12.79,0,0,1-12.75-12.75V40.84c0-7,5.78-12,12.75-12.75,3.4-.39,15.41-3.12,15.41-3.12l-.07-6.64H300L300,25s11.85,2.73,15.42,3.12c7,.77,12.75,5.74,12.75,12.75V145.37A12.79,12.79,0,0,1,315.4,158.12Z"/><path class="h" d="M253.53,110.09c10.4-5.32,37.23-10.29,37.23-10.29l0,10-37,6.81Z"/><path class="i" d="M255.17,144.12a172.67,172.67,0,0,0,19.19-1.25c11.8-1.35,22.69-3.68,22.69-3.68l-.31-33.59s-29.82,4-43.26,4.62Z"/><g class="j"><ellipse class="k" cx="258.21" cy="127.92" rx="8.67" ry="9.91" transform="matrix(1, -0.07, 0.07, 1, -8.03, 17.69)"/></g><path class="l" d="M315.4,158.16H231.47a12.79,12.79,0,0,1-12.75-12.75v-3.76s5.87,7.53,54.71,7.53c47.44,0,54.72-8,54.72-8v4.2A12.79,12.79,0,0,1,315.4,158.16Z"/><ellipse class="m" cx="286.02" cy="149.75" rx="8.39" ry="3.93" transform="translate(-27.56 72.93) rotate(-13.87)"/><ellipse class="n" cx="311.15" cy="151.86" rx="6.14" ry="1.83" transform="translate(-17.8 43.85) rotate(-7.84)"/><ellipse class="o" cx="298.52" cy="151.86" rx="8.39" ry="2.66"/><ellipse class="o" cx="313.14" cy="148.92" rx="2.66" ry="8.39" transform="translate(85.45 410.43) rotate(-74.39)"/><ellipse class="o" cx="313.09" cy="130.62" rx="7.16" ry="3.08" transform="translate(8.95 280.9) rotate(-48.94)"/><ellipse class="n" cx="289.8" cy="147.83" rx="2.66" ry="8.39" transform="translate(69.44 387.15) rotate(-74.39)"/><ellipse class="m" cx="307.57" cy="146.93" rx="8.39" ry="3.93" transform="translate(-26.25 78.01) rotate(-13.87)"/><ellipse class="m" cx="252.96" cy="149.5" rx="8.39" ry="3.93" transform="translate(-28.46 65) rotate(-13.87)"/><ellipse class="n" cx="275.27" cy="152.16" rx="6.14" ry="1.83" transform="translate(-18.18 38.96) rotate(-7.84)"/><ellipse class="o" cx="262.63" cy="152.16" rx="8.39" ry="2.66"/><ellipse class="o" cx="277.05" cy="149.84" rx="2.66" ry="8.39" transform="translate(58.18 376.35) rotate(-74.39)"/><ellipse class="n" cx="253.71" cy="148.74" rx="2.66" ry="8.39" transform="translate(42.18 353.07) rotate(-74.39)"/><ellipse class="m" cx="271.48" cy="147.85" rx="8.39" ry="3.93" transform="translate(-27.53 69.39) rotate(-13.87)"/><ellipse class="m" cx="257.39" cy="146.91" rx="8.39" ry="3.93" transform="translate(-27.71 65.98) rotate(-13.87)"/><ellipse class="n" cx="282.72" cy="148.39" rx="6.14" ry="1.83" transform="translate(-17.59 39.94) rotate(-7.84)"/><ellipse class="n" cx="298.28" cy="146.75" rx="8.27" ry="2.46" transform="translate(-17.22 42.04) rotate(-7.84)"/><ellipse class="o" cx="270.09" cy="148.39" rx="8.39" ry="2.66"/><ellipse class="o" cx="284.5" cy="146.07" rx="2.66" ry="8.39" transform="translate(67.26 380.77) rotate(-74.39)"/><ellipse class="n" cx="242.62" cy="150.34" rx="2.66" ry="8.39" transform="translate(32.53 343.55) rotate(-74.39)"/><ellipse class="m" cx="278.93" cy="144.08" rx="8.39" ry="3.93" transform="translate(-26.41 71.07) rotate(-13.87)"/><ellipse class="m" cx="304.89" cy="141.85" rx="3.93" ry="8.39" transform="translate(94.09 403.85) rotate(-76.13)"/><ellipse class="n" cx="279.56" cy="143.34" rx="1.83" ry="6.14" transform="translate(99.44 400.74) rotate(-82.16)"/><ellipse class="o" cx="292.19" cy="143.34" rx="8.39" ry="2.66"/><ellipse class="o" cx="259.24" cy="146.38" rx="8.39" ry="2.66" transform="matrix(0.96, -0.27, 0.27, 0.96, -29.83, 75.16)"/><ellipse class="n" cx="301.12" cy="139.93" rx="8.39" ry="2.66" transform="translate(-26.55 86.19) rotate(-15.61)"/><ellipse class="m" cx="283.35" cy="139.03" rx="3.93" ry="8.39" transform="translate(80.45 380.79) rotate(-76.13)"/><ellipse class="n" cx="255.26" cy="147.52" rx="2.66" ry="8.39" transform="translate(44.49 353.66) rotate(-74.39)"/><ellipse class="m" cx="235.32" cy="147.21" rx="8.39" ry="3.93" transform="translate(-28.43 60.7) rotate(-13.87)"/><ellipse class="o" cx="248.91" cy="147.81" rx="2.66" ry="8.39" transform="translate(39.58 347.76) rotate(-74.39)"/><ellipse class="m" cx="244.39" cy="143.78" rx="8.39" ry="3.93" transform="translate(-27.34 62.78) rotate(-13.87)"/><ellipse class="n" cx="245.02" cy="143.03" rx="1.83" ry="6.14" transform="translate(69.91 366.26) rotate(-82.16)"/><ellipse class="o" cx="257.65" cy="143.03" rx="8.39" ry="2.66"/><ellipse class="o" cx="243.24" cy="140.71" rx="8.39" ry="2.66" transform="translate(-28.89 70.65) rotate(-15.61)"/><ellipse class="m" cx="263.46" cy="141.61" rx="3.93" ry="8.39" transform="matrix(0.24, -0.97, 0.97, 0.24, 62.82, 363.44)"/><ellipse class="m" cx="293.89" cy="138.39" rx="8.39" ry="3.93" transform="translate(-24.61 74.49) rotate(-13.87)"/><ellipse class="n" cx="294.52" cy="137.65" rx="1.83" ry="6.14" transform="translate(118 410.65) rotate(-82.16)"/><ellipse class="o" cx="292.74" cy="135.33" rx="8.39" ry="2.66" transform="translate(-25.62 83.77) rotate(-15.61)"/><ellipse class="m" cx="298.31" cy="133.34" rx="3.93" ry="8.39" transform="translate(97.35 390.99) rotate(-76.13)"/><ellipse class="n" cx="288.76" cy="136.47" rx="2.66" ry="8.39" transform="matrix(0.27, -0.96, 0.96, 0.27, 79.62, 377.85)"/><ellipse class="o" cx="291.16" cy="131.98" rx="8.39" ry="2.66"/><ellipse class="m" cx="282.31" cy="127.67" rx="3.93" ry="8.39" transform="translate(90.69 371.15) rotate(-76.13)"/><ellipse class="m" cx="300.92" cy="120.02" rx="5.77" ry="8.44" transform="translate(104.36 377.55) rotate(-74.39)"/><path class="p" d="M236.31,112.79c8.26-8.26,32.26-21.25,32.26-21.25l3.09,9.5L238.58,118.9Z"/><path class="h" d="M248.34,144.66a171.48,171.48,0,0,0,17.88-7.09c10.81-4.92,20.45-10.48,20.45-10.48L276.05,95.22s-27.15,13-39.74,17.7Z"/><g class="q"><ellipse class="r" cx="246.25" cy="128.32" rx="8.67" ry="9.91" transform="translate(-30.03 100.52) rotate(-21.78)"/></g><path class="s" d="M315.4,158.12H231.47a12.79,12.79,0,0,1-12.75-12.75V40.84c0-7,5.78-12,12.75-12.75,3.4-.39,15.41-3.12,15.41-3.12l-.07-6.64H300L300,25s11.85,2.73,15.42,3.12c7,.77,12.75,5.74,12.75,12.75V145.37A12.79,12.79,0,0,1,315.4,158.12Z"/><rect class="e" x="312.05" y="122.55" width="58.9" height="11.26" transform="translate(373.05 -235.21) rotate(74.39)"/></svg>