<?xml version="1.0" encoding="utf-8"?>
<!-- Generator: Adobe Illustrator 23.0.1, SVG Export Plug-In . SVG Version: 6.00 Build 0)  -->
<svg version="1.1" id="Layer_1" xmlns="http://www.w3.org/2000/svg" xmlns:xlink="http://www.w3.org/1999/xlink" x="0px" y="0px"
	 viewBox="0 0 597.8 597.8" style="enable-background:new 0 0 597.8 597.8;" xml:space="preserve">
<style type="text/css">
	.st0{fill:#22A7F0;}
	.st1{opacity:0.3;fill:#354050;enable-background:new    ;}
	.st2{fill:#5D5E5E;}
	.st3{fill:#7F8080;}
	.st4{fill:url(#SVGID_1_);}
	.st5{fill:url(#SVGID_2_);}
	.st6{fill:#FFFFFF;}
	.st7{fill:#B8B8B8;}
	.st8{fill:#1B1C1C;}
	.st9{fill:url(#SVGID_3_);}
	.st10{fill:#4360A5;}
	.st11{fill:#C7D3EC;}
	.st12{fill:#212221;}
	.st13{fill:#F6FBFD;}
	.st14{fill:#050505;}
	.st15{fill:#354050;}
</style>
<title>Error404_circle</title>
<circle class="st0" cx="298.9" cy="298.9" r="298.9"/>
<ellipse class="st1" cx="301.2" cy="462.6" rx="127" ry="12.3"/>
<path class="st2" d="M211.6,460.4c0,0,1.2,1.5,0.4,2.7c-0.7,1.7-2.3,2.9-4.1,3.2c-2.8,0.7-9.8,1.2-13.9,0.3s-4.6-4.2-3.9-4.6
	C191.1,461.5,211.6,460.4,211.6,460.4z"/>
<path class="st3" d="M224.4,450.7c-3,0.6-5.7,2.1-7.7,4.4c-3.4,3.9-3.8,6-3.8,6s-0.3,0.8-3,1.5c-3.1,0.7-6.2,1-9.3,1
	c-3.1,0.1-6.3-0.2-9.3-0.9c-2.2-0.6-1.4-1.9-1.5-3.3s-1.6-15.9-3.2-21.3S224.4,450.7,224.4,450.7z"/>
<path class="st2" d="M388.3,460.1c0,0-1.2,1.5-0.4,2.7c0.7,1.7,2.3,2.9,4.1,3.2c2.8,0.7,9.8,1.2,13.9,0.3s4.6-4.2,3.9-4.6
	C408.7,461.2,388.3,460.1,388.3,460.1z"/>
<path class="st3" d="M375.5,450.3c3,0.6,5.7,2.1,7.7,4.4c3.4,3.9,3.8,6,3.8,6s0.3,0.8,3,1.5c3.1,0.7,6.2,1,9.3,1
	c3.1,0.1,6.3-0.2,9.3-0.9c2.2-0.6,1.5-1.9,1.5-3.2s1.6-15.9,3.2-21.3S375.5,450.3,375.5,450.3z"/>
<linearGradient id="SVGID_1_" gradientUnits="userSpaceOnUse" x1="295.8225" y1="244.1196" x2="307.0573" y2="263.5908" gradientTransform="matrix(1 0 0 -1 -0.96 599.26)">
	<stop  offset="0.41" style="stop-color:#F1F1F2"/>
	<stop  offset="0.67" style="stop-color:#FFFFFF"/>
	<stop  offset="1" style="stop-color:#BBBDBF"/>
</linearGradient>
<path class="st4" d="M278.4,345.6l1.4-1.5c0,0,8-0.4,20.2-0.4s20.9,0.4,20.9,0.4l1.5,1.5H278.4z"/>
<linearGradient id="SVGID_2_" gradientUnits="userSpaceOnUse" x1="279.39" y1="251.875" x2="323.32" y2="251.875" gradientTransform="matrix(1 0 0 -1 -0.96 599.26)">
	<stop  offset="0" style="stop-color:#FFFFFF"/>
	<stop  offset="1" style="stop-color:#D0D2D3"/>
</linearGradient>
<path class="st5" d="M322.4,349.6h-43.9v-4c0,0,16.5-0.5,22-0.5s22,0.5,22,0.5L322.4,349.6z"/>
<path class="st6" d="M435.1,400c-4.1-21.2-37.3-42.4-86.5-48.2c-9.8-1.1-28.7-1.2-50.5-1.2c-16.2,0-30.9-0.2-41.4,0.7
	c-51,4.7-85.7,26.5-89.3,48.7c-1.3,8.1-0.5,17.5,2.6,21.9c15.5,21.9,69.6,29.9,131.2,29.9c63.2,0,116.7-5.1,130.8-27.9
	C434.4,420,436.7,408.2,435.1,400z"/>
<path class="st7" d="M435,409.4c0,38.3-53.8,48.9-134.1,48.9s-133.6-10.6-133.6-48.9c0-40.2,53.3-48.9,133.6-48.9
	S435,369.3,435,409.4z"/>
<path class="st8" d="M428.2,408.8c0,33.5-51.1,42.8-127.3,42.8s-126.8-9.3-126.8-42.8c0-35.2,50.7-42.8,126.8-42.8
	S428.2,373.6,428.2,408.8z"/>
<linearGradient id="SVGID_3_" gradientUnits="userSpaceOnUse" x1="295.4463" y1="236.8264" x2="309.1948" y2="260.6339" gradientTransform="matrix(1 0 0 -1 -0.96 599.26)">
	<stop  offset="0.32" style="stop-color:#F1F1F2"/>
	<stop  offset="0.77" style="stop-color:#FFFFFF"/>
	<stop  offset="1" style="stop-color:#BBBDBF"/>
</linearGradient>
<path class="st9" d="M274.2,350.7c0.3-0.4,0.7-0.8,1.1-1.1c0.7-0.6,1.7-0.9,2.6-0.8c1.5-0.1,11.5-0.3,22.9-0.3s20.5,0.2,22.7,0.3
	s2.9,0.2,3.6,0.8l1.1,1.1H274.2z"/>
<circle class="st10" cx="209.6" cy="406.9" r="24.3"/>
<circle class="st8" cx="209.6" cy="406.9" r="17"/>
<circle class="st11" cx="204.1" cy="387.2" r="3.5"/>
<circle class="st11" cx="215.4" cy="387.3" r="3.5"/>
<circle class="st11" cx="224.8" cy="393.1" r="3.5"/>
<circle class="st11" cx="229.8" cy="403" r="3.5"/>
<circle class="st11" cx="229" cy="413.7" r="3.5"/>
<circle class="st11" cx="223.7" cy="421.8" r="3.5"/>
<circle class="st11" cx="214.6" cy="426.8" r="3.5"/>
<circle class="st11" cx="204.6" cy="426.8" r="3.5"/>
<circle class="st11" cx="195.3" cy="421.6" r="3.5"/>
<circle class="st11" cx="190" cy="412.9" r="3.5"/>
<circle class="st11" cx="189.8" cy="401.9" r="3.5"/>
<circle class="st11" cx="195" cy="392.6" r="3.5"/>
<circle class="st10" cx="390.1" cy="406.9" r="24.3"/>
<circle class="st8" cx="390.1" cy="406.9" r="17"/>
<circle class="st11" cx="395.7" cy="387.2" r="3.5"/>
<circle class="st11" cx="384.4" cy="387.3" r="3.5"/>
<circle class="st11" cx="374.9" cy="393.1" r="3.5"/>
<circle class="st11" cx="370" cy="403" r="3.5"/>
<circle class="st11" cx="370.8" cy="413.7" r="3.5"/>
<circle class="st11" cx="376.1" cy="421.8" r="3.5"/>
<circle class="st11" cx="385.1" cy="426.8" r="3.5"/>
<circle class="st11" cx="395.2" cy="426.8" r="3.5"/>
<circle class="st11" cx="404.4" cy="421.6" r="3.5"/>
<circle class="st11" cx="409.7" cy="412.9" r="3.5"/>
<circle class="st11" cx="410" cy="401.9" r="3.5"/>
<circle class="st11" cx="404.8" cy="392.6" r="3.5"/>
<circle class="st12" cx="278.6" cy="414.2" r="1.5"/>
<circle class="st12" cx="278.6" cy="418.1" r="1.5"/>
<circle class="st12" cx="282.5" cy="414.2" r="1.5"/>
<circle class="st12" cx="282.5" cy="418.1" r="1.5"/>
<circle class="st12" cx="286.4" cy="414.2" r="1.5"/>
<circle class="st12" cx="286.4" cy="418.1" r="1.5"/>
<circle class="st12" cx="290.2" cy="414.2" r="1.5"/>
<circle class="st12" cx="290.2" cy="418.1" r="1.5"/>
<circle class="st12" cx="294.1" cy="414.2" r="1.5"/>
<circle class="st12" cx="294.1" cy="418.1" r="1.5"/>
<circle class="st12" cx="298" cy="414.2" r="1.5"/>
<circle class="st12" cx="298" cy="418.1" r="1.5"/>
<circle class="st12" cx="301.9" cy="414.2" r="1.5"/>
<circle class="st12" cx="301.9" cy="418.1" r="1.5"/>
<circle class="st12" cx="305.8" cy="414.2" r="1.5"/>
<circle class="st12" cx="305.8" cy="418.1" r="1.5"/>
<circle class="st12" cx="309.7" cy="414.2" r="1.5"/>
<circle class="st12" cx="309.7" cy="418.1" r="1.5"/>
<circle class="st12" cx="313.6" cy="414.2" r="1.5"/>
<circle class="st12" cx="313.6" cy="418.1" r="1.5"/>
<circle class="st12" cx="317.5" cy="414.2" r="1.5"/>
<circle class="st12" cx="317.5" cy="418.1" r="1.5"/>
<circle class="st12" cx="321.4" cy="414.2" r="1.5"/>
<circle class="st12" cx="321.4" cy="418.1" r="1.5"/>
<circle class="st12" cx="278.6" cy="422" r="1.5"/>
<circle class="st12" cx="282.5" cy="422" r="1.5"/>
<circle class="st12" cx="286.4" cy="422" r="1.5"/>
<circle class="st12" cx="290.2" cy="422" r="1.5"/>
<circle class="st12" cx="294.1" cy="422" r="1.5"/>
<circle class="st12" cx="298" cy="422" r="1.5"/>
<circle class="st12" cx="301.9" cy="422" r="1.5"/>
<circle class="st12" cx="305.8" cy="422" r="1.5"/>
<circle class="st12" cx="309.7" cy="422" r="1.5"/>
<circle class="st12" cx="313.6" cy="422" r="1.5"/>
<circle class="st12" cx="317.5" cy="422" r="1.5"/>
<circle class="st12" cx="321.4" cy="422" r="1.5"/>
<circle class="st12" cx="278.6" cy="406.4" r="1.5"/>
<circle class="st12" cx="278.6" cy="410.3" r="1.5"/>
<circle class="st12" cx="282.5" cy="406.4" r="1.5"/>
<circle class="st12" cx="282.5" cy="410.3" r="1.5"/>
<circle class="st12" cx="286.4" cy="406.4" r="1.5"/>
<circle class="st12" cx="286.4" cy="410.3" r="1.5"/>
<circle class="st12" cx="290.2" cy="406.4" r="1.5"/>
<circle class="st12" cx="290.2" cy="410.3" r="1.5"/>
<circle class="st12" cx="294.1" cy="406.4" r="1.5"/>
<circle class="st12" cx="294.1" cy="410.3" r="1.5"/>
<circle class="st12" cx="298" cy="406.4" r="1.5"/>
<circle class="st12" cx="298" cy="410.3" r="1.5"/>
<circle class="st12" cx="301.9" cy="406.4" r="1.5"/>
<circle class="st12" cx="301.9" cy="410.3" r="1.5"/>
<circle class="st12" cx="305.8" cy="406.4" r="1.5"/>
<circle class="st12" cx="305.8" cy="410.3" r="1.5"/>
<circle class="st12" cx="309.7" cy="406.4" r="1.5"/>
<circle class="st12" cx="309.7" cy="410.3" r="1.5"/>
<circle class="st12" cx="313.6" cy="406.4" r="1.5"/>
<circle class="st12" cx="313.6" cy="410.3" r="1.5"/>
<circle class="st12" cx="317.5" cy="406.4" r="1.5"/>
<circle class="st12" cx="317.5" cy="410.3" r="1.5"/>
<circle class="st12" cx="321.4" cy="406.4" r="1.5"/>
<circle class="st12" cx="321.4" cy="410.3" r="1.5"/>
<circle class="st12" cx="278.6" cy="402.5" r="1.5"/>
<circle class="st12" cx="282.5" cy="402.5" r="1.5"/>
<circle class="st12" cx="286.4" cy="402.5" r="1.5"/>
<circle class="st12" cx="290.2" cy="402.5" r="1.5"/>
<circle class="st12" cx="294.1" cy="402.5" r="1.5"/>
<circle class="st12" cx="298" cy="402.5" r="1.5"/>
<circle class="st12" cx="301.9" cy="402.5" r="1.5"/>
<circle class="st12" cx="305.8" cy="402.5" r="1.5"/>
<circle class="st12" cx="309.7" cy="402.5" r="1.5"/>
<circle class="st12" cx="313.6" cy="402.5" r="1.5"/>
<circle class="st12" cx="317.5" cy="402.5" r="1.5"/>
<circle class="st12" cx="321.4" cy="402.5" r="1.5"/>
<circle class="st12" cx="278.6" cy="394.8" r="1.5"/>
<circle class="st12" cx="278.6" cy="398.6" r="1.5"/>
<circle class="st12" cx="282.5" cy="394.8" r="1.5"/>
<circle class="st12" cx="282.5" cy="398.6" r="1.5"/>
<circle class="st12" cx="286.4" cy="394.8" r="1.5"/>
<circle class="st12" cx="286.4" cy="398.6" r="1.5"/>
<circle class="st12" cx="290.2" cy="394.8" r="1.5"/>
<circle class="st12" cx="290.2" cy="398.6" r="1.5"/>
<circle class="st12" cx="294.1" cy="394.8" r="1.5"/>
<circle class="st12" cx="294.1" cy="398.6" r="1.5"/>
<circle class="st12" cx="298" cy="394.8" r="1.5"/>
<circle class="st12" cx="298" cy="398.6" r="1.5"/>
<circle class="st12" cx="301.9" cy="394.8" r="1.5"/>
<circle class="st12" cx="301.9" cy="398.6" r="1.5"/>
<circle class="st12" cx="305.8" cy="394.8" r="1.5"/>
<circle class="st12" cx="305.8" cy="398.6" r="1.5"/>
<circle class="st12" cx="309.7" cy="394.8" r="1.5"/>
<circle class="st12" cx="309.7" cy="398.6" r="1.5"/>
<circle class="st12" cx="313.6" cy="394.8" r="1.5"/>
<circle class="st12" cx="313.6" cy="398.6" r="1.5"/>
<circle class="st12" cx="317.5" cy="394.8" r="1.5"/>
<circle class="st12" cx="317.5" cy="398.6" r="1.5"/>
<circle class="st12" cx="321.4" cy="394.8" r="1.5"/>
<circle class="st12" cx="321.4" cy="398.6" r="1.5"/>
<circle class="st12" cx="325.3" cy="414.2" r="1.5"/>
<circle class="st12" cx="325.3" cy="418.1" r="1.5"/>
<circle class="st12" cx="329.2" cy="414.2" r="1.5"/>
<circle class="st12" cx="329.2" cy="418.1" r="1.5"/>
<circle class="st12" cx="333.1" cy="414.2" r="1.5"/>
<circle class="st12" cx="333.1" cy="418.1" r="1.5"/>
<circle class="st12" cx="337" cy="414.2" r="1.5"/>
<circle class="st12" cx="337" cy="418.1" r="1.5"/>
<circle class="st12" cx="340.9" cy="414.2" r="1.5"/>
<circle class="st12" cx="340.9" cy="418.1" r="1.5"/>
<circle class="st12" cx="344.8" cy="414.2" r="1.5"/>
<circle class="st12" cx="344.8" cy="418.1" r="1.5"/>
<circle class="st12" cx="348.7" cy="414.2" r="1.5"/>
<circle class="st12" cx="348.7" cy="418.1" r="1.5"/>
<circle class="st12" cx="352.6" cy="414.2" r="1.5"/>
<circle class="st12" cx="352.6" cy="418.1" r="1.5"/>
<circle class="st12" cx="356.5" cy="414.2" r="1.5"/>
<circle class="st12" cx="356.5" cy="418.1" r="1.5"/>
<circle class="st12" cx="360.4" cy="414.2" r="1.5"/>
<circle class="st12" cx="360.4" cy="418.1" r="1.5"/>
<circle class="st12" cx="325.3" cy="422" r="1.5"/>
<circle class="st12" cx="329.2" cy="422" r="1.5"/>
<circle class="st12" cx="333.1" cy="422" r="1.5"/>
<circle class="st12" cx="337" cy="422" r="1.5"/>
<circle class="st12" cx="340.9" cy="422" r="1.5"/>
<circle class="st12" cx="344.8" cy="422" r="1.5"/>
<circle class="st12" cx="348.7" cy="422" r="1.5"/>
<circle class="st12" cx="352.6" cy="422" r="1.5"/>
<circle class="st12" cx="356.5" cy="422" r="1.5"/>
<circle class="st12" cx="360.4" cy="422" r="1.5"/>
<circle class="st12" cx="325.3" cy="406.4" r="1.5"/>
<circle class="st12" cx="325.3" cy="410.3" r="1.5"/>
<circle class="st12" cx="329.2" cy="406.4" r="1.5"/>
<circle class="st12" cx="329.2" cy="410.3" r="1.5"/>
<circle class="st12" cx="333.1" cy="406.4" r="1.5"/>
<circle class="st12" cx="333.1" cy="410.3" r="1.5"/>
<circle class="st12" cx="337" cy="406.4" r="1.5"/>
<circle class="st12" cx="337" cy="410.3" r="1.5"/>
<circle class="st12" cx="340.9" cy="406.4" r="1.5"/>
<circle class="st12" cx="340.9" cy="410.3" r="1.5"/>
<circle class="st12" cx="344.8" cy="406.4" r="1.5"/>
<circle class="st12" cx="344.8" cy="410.3" r="1.5"/>
<circle class="st12" cx="348.7" cy="406.4" r="1.5"/>
<circle class="st12" cx="348.7" cy="410.3" r="1.5"/>
<circle class="st12" cx="352.6" cy="406.4" r="1.5"/>
<circle class="st12" cx="352.6" cy="410.3" r="1.5"/>
<circle class="st12" cx="356.5" cy="406.4" r="1.5"/>
<circle class="st12" cx="356.5" cy="410.3" r="1.5"/>
<circle class="st12" cx="360.4" cy="406.4" r="1.5"/>
<circle class="st12" cx="360.4" cy="410.3" r="1.5"/>
<circle class="st12" cx="325.3" cy="402.5" r="1.5"/>
<circle class="st12" cx="329.2" cy="402.5" r="1.5"/>
<circle class="st12" cx="333.1" cy="402.5" r="1.5"/>
<circle class="st12" cx="337" cy="402.5" r="1.5"/>
<circle class="st12" cx="340.9" cy="402.5" r="1.5"/>
<circle class="st12" cx="344.8" cy="402.5" r="1.5"/>
<circle class="st12" cx="348.7" cy="402.5" r="1.5"/>
<circle class="st12" cx="352.6" cy="402.5" r="1.5"/>
<circle class="st12" cx="356.5" cy="402.5" r="1.5"/>
<circle class="st12" cx="360.4" cy="402.5" r="1.5"/>
<circle class="st12" cx="325.3" cy="394.8" r="1.5"/>
<circle class="st12" cx="325.3" cy="398.6" r="1.5"/>
<circle class="st12" cx="239.6" cy="414.2" r="1.5"/>
<circle class="st12" cx="239.6" cy="418.1" r="1.5"/>
<circle class="st12" cx="243.5" cy="414.2" r="1.5"/>
<circle class="st12" cx="243.5" cy="418.1" r="1.5"/>
<circle class="st12" cx="247.4" cy="414.2" r="1.5"/>
<circle class="st12" cx="247.4" cy="418.1" r="1.5"/>
<circle class="st12" cx="251.3" cy="414.2" r="1.5"/>
<circle class="st12" cx="251.3" cy="418.1" r="1.5"/>
<circle class="st12" cx="255.2" cy="414.2" r="1.5"/>
<circle class="st12" cx="255.2" cy="418.1" r="1.5"/>
<circle class="st12" cx="259.1" cy="414.2" r="1.5"/>
<circle class="st12" cx="259.1" cy="418.1" r="1.5"/>
<circle class="st12" cx="263" cy="414.2" r="1.5"/>
<circle class="st12" cx="263" cy="418.1" r="1.5"/>
<circle class="st12" cx="266.9" cy="414.2" r="1.5"/>
<circle class="st12" cx="266.9" cy="418.1" r="1.5"/>
<circle class="st12" cx="270.8" cy="414.2" r="1.5"/>
<circle class="st12" cx="270.8" cy="418.1" r="1.5"/>
<circle class="st12" cx="274.7" cy="414.2" r="1.5"/>
<circle class="st12" cx="274.7" cy="418.1" r="1.5"/>
<circle class="st12" cx="239.6" cy="422" r="1.5"/>
<circle class="st12" cx="243.5" cy="422" r="1.5"/>
<circle class="st12" cx="247.4" cy="422" r="1.5"/>
<circle class="st12" cx="251.3" cy="422" r="1.5"/>
<circle class="st12" cx="255.2" cy="422" r="1.5"/>
<circle class="st12" cx="259.1" cy="422" r="1.5"/>
<circle class="st12" cx="263" cy="422" r="1.5"/>
<circle class="st12" cx="266.9" cy="422" r="1.5"/>
<circle class="st12" cx="270.8" cy="422" r="1.5"/>
<circle class="st12" cx="274.7" cy="422" r="1.5"/>
<circle class="st12" cx="239.6" cy="406.4" r="1.5"/>
<circle class="st12" cx="239.6" cy="410.3" r="1.5"/>
<circle class="st12" cx="243.5" cy="406.4" r="1.5"/>
<circle class="st12" cx="243.5" cy="410.3" r="1.5"/>
<circle class="st12" cx="247.4" cy="406.4" r="1.5"/>
<circle class="st12" cx="247.4" cy="410.3" r="1.5"/>
<circle class="st12" cx="251.3" cy="406.4" r="1.5"/>
<circle class="st12" cx="251.3" cy="410.3" r="1.5"/>
<circle class="st12" cx="255.2" cy="406.4" r="1.5"/>
<circle class="st12" cx="255.2" cy="410.3" r="1.5"/>
<circle class="st12" cx="259.1" cy="406.4" r="1.5"/>
<circle class="st12" cx="259.1" cy="410.3" r="1.5"/>
<circle class="st12" cx="263" cy="406.4" r="1.5"/>
<circle class="st12" cx="263" cy="410.3" r="1.5"/>
<circle class="st12" cx="266.9" cy="406.4" r="1.5"/>
<circle class="st12" cx="266.9" cy="410.3" r="1.5"/>
<circle class="st12" cx="270.8" cy="406.4" r="1.5"/>
<circle class="st12" cx="270.8" cy="410.3" r="1.5"/>
<circle class="st12" cx="274.7" cy="406.4" r="1.5"/>
<circle class="st12" cx="274.7" cy="410.3" r="1.5"/>
<circle class="st12" cx="239.6" cy="402.5" r="1.5"/>
<circle class="st12" cx="243.5" cy="402.5" r="1.5"/>
<circle class="st12" cx="247.4" cy="402.5" r="1.5"/>
<circle class="st12" cx="251.3" cy="402.5" r="1.5"/>
<circle class="st12" cx="255.2" cy="402.5" r="1.5"/>
<circle class="st12" cx="259.1" cy="402.5" r="1.5"/>
<circle class="st12" cx="263" cy="402.5" r="1.5"/>
<circle class="st12" cx="266.9" cy="402.5" r="1.5"/>
<circle class="st12" cx="270.8" cy="402.5" r="1.5"/>
<circle class="st12" cx="274.7" cy="402.5" r="1.5"/>
<circle class="st12" cx="239.6" cy="394.8" r="1.5"/>
<circle class="st12" cx="239.6" cy="398.6" r="1.5"/>
<circle class="st12" cx="243.5" cy="394.8" r="1.5"/>
<circle class="st12" cx="243.5" cy="398.6" r="1.5"/>
<circle class="st12" cx="247.4" cy="394.8" r="1.5"/>
<circle class="st12" cx="247.4" cy="398.6" r="1.5"/>
<circle class="st12" cx="251.3" cy="394.8" r="1.5"/>
<circle class="st12" cx="251.3" cy="398.6" r="1.5"/>
<circle class="st12" cx="255.2" cy="394.8" r="1.5"/>
<circle class="st12" cx="255.2" cy="398.6" r="1.5"/>
<circle class="st12" cx="259.1" cy="394.8" r="1.5"/>
<circle class="st12" cx="259.1" cy="398.6" r="1.5"/>
<circle class="st12" cx="263" cy="394.8" r="1.5"/>
<circle class="st12" cx="263" cy="398.6" r="1.5"/>
<circle class="st12" cx="266.9" cy="394.8" r="1.5"/>
<circle class="st12" cx="266.9" cy="398.6" r="1.5"/>
<circle class="st12" cx="270.8" cy="394.8" r="1.5"/>
<circle class="st12" cx="270.8" cy="398.6" r="1.5"/>
<circle class="st12" cx="274.7" cy="394.8" r="1.5"/>
<circle class="st12" cx="274.7" cy="398.6" r="1.5"/>
<circle class="st12" cx="329.2" cy="394.8" r="1.5"/>
<circle class="st12" cx="329.2" cy="398.6" r="1.5"/>
<circle class="st12" cx="333.1" cy="394.8" r="1.5"/>
<circle class="st12" cx="333.1" cy="398.6" r="1.5"/>
<circle class="st12" cx="337" cy="394.8" r="1.5"/>
<circle class="st12" cx="337" cy="398.6" r="1.5"/>
<circle class="st12" cx="340.9" cy="394.8" r="1.5"/>
<circle class="st12" cx="340.9" cy="398.6" r="1.5"/>
<circle class="st12" cx="344.8" cy="394.8" r="1.5"/>
<circle class="st12" cx="344.8" cy="398.6" r="1.5"/>
<circle class="st12" cx="348.7" cy="394.8" r="1.5"/>
<circle class="st12" cx="348.7" cy="398.6" r="1.5"/>
<circle class="st12" cx="352.6" cy="394.8" r="1.5"/>
<circle class="st12" cx="352.6" cy="398.6" r="1.5"/>
<circle class="st12" cx="356.5" cy="394.8" r="1.5"/>
<circle class="st12" cx="356.5" cy="398.6" r="1.5"/>
<circle class="st12" cx="360.4" cy="394.8" r="1.5"/>
<circle class="st12" cx="360.4" cy="398.6" r="1.5"/>
<circle class="st13" cx="251.3" cy="418.1" r="1.5"/>
<circle class="st13" cx="251.3" cy="414.2" r="1.5"/>
<circle class="st13" cx="251.3" cy="410.3" r="1.5"/>
<circle class="st13" cx="266.9" cy="414.2" r="1.5"/>
<circle class="st13" cx="266.9" cy="418.1" r="1.5"/>
<circle class="st13" cx="266.9" cy="406.4" r="1.5"/>
<circle class="st13" cx="266.9" cy="410.3" r="1.5"/>
<circle class="st13" cx="255.2" cy="422" r="1.5"/>
<circle class="st13" cx="259.1" cy="422" r="1.5"/>
<circle class="st13" cx="263" cy="422" r="1.5"/>
<circle class="st13" cx="251.3" cy="402.5" r="1.5"/>
<circle class="st13" cx="251.3" cy="406.4" r="1.5"/>
<circle class="st13" cx="266.9" cy="402.5" r="1.5"/>
<circle class="st13" cx="255.2" cy="398.6" r="1.5"/>
<circle class="st13" cx="259.1" cy="398.6" r="1.5"/>
<circle class="st13" cx="263" cy="398.6" r="1.5"/>
<circle class="st13" cx="333.1" cy="418.1" r="1.5"/>
<circle class="st13" cx="333.1" cy="414.2" r="1.5"/>
<circle class="st13" cx="333.1" cy="410.3" r="1.5"/>
<circle class="st13" cx="348.7" cy="414.2" r="1.5"/>
<circle class="st13" cx="348.7" cy="418.1" r="1.5"/>
<circle class="st13" cx="348.7" cy="406.4" r="1.5"/>
<circle class="st13" cx="348.7" cy="410.3" r="1.5"/>
<circle class="st13" cx="337" cy="422" r="1.5"/>
<circle class="st13" cx="340.9" cy="422" r="1.5"/>
<circle class="st13" cx="344.8" cy="422" r="1.5"/>
<circle class="st13" cx="333.1" cy="402.5" r="1.5"/>
<circle class="st13" cx="333.1" cy="406.4" r="1.5"/>
<circle class="st13" cx="348.7" cy="402.5" r="1.5"/>
<circle class="st13" cx="337" cy="398.6" r="1.5"/>
<circle class="st13" cx="340.9" cy="398.6" r="1.5"/>
<circle class="st13" cx="344.8" cy="398.6" r="1.5"/>
<circle class="st13" cx="274.7" cy="418.1" r="1.5"/>
<circle class="st13" cx="274.7" cy="414.2" r="1.5"/>
<circle class="st13" cx="274.7" cy="410.3" r="1.5"/>
<circle class="st13" cx="278.6" cy="410.3" r="1.5"/>
<circle class="st13" cx="282.5" cy="410.3" r="1.5"/>
<circle class="st13" cx="286.4" cy="410.3" r="1.5"/>
<circle class="st13" cx="290.2" cy="414.2" r="1.5"/>
<circle class="st13" cx="290.2" cy="418.1" r="1.5"/>
<circle class="st13" cx="274.7" cy="422" r="1.5"/>
<circle class="st13" cx="290.2" cy="422" r="1.5"/>
<circle class="st13" cx="290.2" cy="406.4" r="1.5"/>
<circle class="st13" cx="290.2" cy="410.3" r="1.5"/>
<circle class="st13" cx="274.7" cy="402.5" r="1.5"/>
<circle class="st13" cx="274.7" cy="406.4" r="1.5"/>
<circle class="st13" cx="290.2" cy="402.5" r="1.5"/>
<circle class="st13" cx="274.7" cy="398.6" r="1.5"/>
<circle class="st13" cx="290.2" cy="398.6" r="1.5"/>
<circle class="st13" cx="309.7" cy="418.1" r="1.5"/>
<circle class="st13" cx="309.7" cy="414.2" r="1.5"/>
<circle class="st13" cx="309.7" cy="410.3" r="1.5"/>
<circle class="st13" cx="325.3" cy="414.2" r="1.5"/>
<circle class="st13" cx="325.3" cy="418.1" r="1.5"/>
<circle class="st13" cx="309.7" cy="422" r="1.5"/>
<circle class="st13" cx="325.3" cy="422" r="1.5"/>
<circle class="st13" cx="325.3" cy="406.4" r="1.5"/>
<circle class="st13" cx="325.3" cy="410.3" r="1.5"/>
<circle class="st13" cx="309.7" cy="402.5" r="1.5"/>
<circle class="st13" cx="309.7" cy="406.4" r="1.5"/>
<circle class="st13" cx="325.3" cy="402.5" r="1.5"/>
<circle class="st13" cx="309.7" cy="398.6" r="1.5"/>
<circle class="st13" cx="313.6" cy="402.5" r="1.5"/>
<circle class="st13" cx="317.5" cy="406.4" r="1.5"/>
<circle class="st13" cx="321.4" cy="410.3" r="1.5"/>
<circle class="st13" cx="325.3" cy="398.6" r="1.5"/>
<circle class="st14" cx="299.5" cy="374.7" r="0.8"/>
<circle class="st14" cx="296.8" cy="375.3" r="0.8"/>
<circle class="st14" cx="296.8" cy="378.3" r="0.8"/>
<circle class="st14" cx="297.6" cy="382.1" r="0.8"/>
<circle class="st14" cx="295.1" cy="380.7" r="0.8"/>
<circle class="st14" cx="294.4" cy="376.9" r="0.8"/>
<circle class="st14" cx="292.8" cy="379.3" r="0.8"/>
<circle class="st14" cx="292.3" cy="382.1" r="0.8"/>
<circle class="st14" cx="295.1" cy="383.5" r="0.8"/>
<circle class="st14" cx="292.8" cy="384.9" r="0.8"/>
<circle class="st14" cx="296.8" cy="385.9" r="0.8"/>
<circle class="st14" cx="296.8" cy="388.9" r="0.8"/>
<circle class="st14" cx="294.4" cy="387.3" r="0.8"/>
<circle class="st14" cx="302.4" cy="375.3" r="0.8"/>
<circle class="st14" cx="302.4" cy="378.3" r="0.8"/>
<circle class="st14" cx="301.6" cy="382.1" r="0.8"/>
<circle class="st14" cx="304.1" cy="380.7" r="0.8"/>
<circle class="st14" cx="304.7" cy="376.9" r="0.8"/>
<circle class="st14" cx="306.3" cy="379.3" r="0.8"/>
<circle class="st14" cx="306.8" cy="382.1" r="0.8"/>
<circle class="st14" cx="304.1" cy="383.5" r="0.8"/>
<circle class="st14" cx="306.3" cy="384.9" r="0.8"/>
<circle class="st14" cx="302.4" cy="385.9" r="0.8"/>
<circle class="st14" cx="302.3" cy="388.9" r="0.8"/>
<circle class="st14" cx="304.7" cy="387.3" r="0.8"/>
<circle class="st14" cx="299.5" cy="377.4" r="0.8"/>
<circle class="st14" cx="299.5" cy="380" r="0.8"/>
<circle class="st14" cx="299.5" cy="384.1" r="0.8"/>
<circle class="st14" cx="299.5" cy="386.8" r="0.8"/>
<circle class="st14" cx="299.5" cy="389.4" r="0.8"/>
<path class="st6" d="M469.7,168.4c-0.9-7.4-6.5-13.3-13.9-14.6c-22.5-3.9-75.7-11.2-156.3-11.2s-133.8,7.3-156.3,11.2
	c-7.3,1.3-13,7.2-13.9,14.6c-2.1,16.9-3.2,33.9-3.4,51c0.1,17.1,1.3,34.1,3.4,51c0.9,7.4,6.5,13.3,13.9,14.6
	c20.3,3.5,65.7,9.8,133.6,11l22.8,27.9l22.8-27.9c67.9-1.2,113.2-7.5,133.6-11c7.3-1.3,13-7.2,13.9-14.6c2.1-16.9,3.2-33.9,3.4-51
	C473,202.4,471.8,185.4,469.7,168.4z"/>
<path class="st15" d="M156,192.4h-4.6v-22.1h4.6V192.4z"/>
<path class="st15" d="M167,184c-0.1-2.2,0.5-4.3,1.7-6.1c1.1-1.5,2.9-2.4,4.7-2.3c1.5,0,3,0.6,4,1.8V169h4.4v23.4h-4l-0.2-1.8
	c-1,1.3-2.6,2-4.2,2c-1.8,0.1-3.6-0.8-4.7-2.3C167.5,188.5,166.9,186.3,167,184z M171.4,184.3c-0.1,1.2,0.2,2.5,0.8,3.6
	c0.5,0.8,1.4,1.3,2.3,1.2c1.2,0.1,2.4-0.6,2.9-1.7v-6.5c-0.5-1.1-1.6-1.8-2.9-1.7C172.5,179.2,171.4,180.9,171.4,184.3L171.4,184.3z
	"/>
<path class="st15" d="M184.6,184c0-1.5,0.3-3,1-4.4c0.6-1.3,1.5-2.3,2.7-3c1.3-0.7,2.7-1,4.1-1c2-0.1,4,0.6,5.4,2
	c1.5,1.5,2.3,3.5,2.4,5.5v1.1c0.1,2.2-0.6,4.4-2.1,6.1c-3.2,3-8.2,3-11.4,0c-1.5-1.7-2.3-3.9-2.1-6.2L184.6,184z M189,184.3
	c-0.1,1.3,0.2,2.5,0.9,3.6c1.1,1.4,3.1,1.6,4.4,0.6c0.2-0.2,0.4-0.4,0.6-0.6c0.7-1.2,1-2.6,0.9-3.9c0.1-1.3-0.2-2.5-0.9-3.6
	c-1-1.4-3-1.6-4.4-0.6c-0.2,0.2-0.4,0.4-0.6,0.6C189.2,181.5,188.9,182.9,189,184.3z"/>
<path class="st15" d="M206.9,175.9l0.1,1.9c1.1-1.5,2.9-2.3,4.7-2.2c1.5-0.1,2.9,0.5,3.9,1.5c1,1.3,1.4,3,1.3,4.6v10.6h-4.4v-10.5
	c0.1-0.7-0.2-1.4-0.6-2c-0.6-0.5-1.3-0.7-2-0.6c-1.2-0.1-2.2,0.6-2.8,1.6v11.6h-4.4v-16.5H206.9z"/>
<path class="st15" d="M221.6,171.3l-0.4,6.1h-2.8V169h3.2V171.3z"/>
<path class="st15" d="M229.5,171.8v4h2.8v3.2h-2.8v8.2c0,0.5,0.1,0.9,0.4,1.3c0.4,0.3,0.9,0.5,1.3,0.4c0.4,0,0.9,0,1.3-0.1v3.4
	c-0.9,0.3-1.8,0.4-2.7,0.4c-3.1,0-4.7-1.6-4.7-4.7v-8.9h-2.4v-3.2h2.4v-4L229.5,171.8z"/>
<path class="st15" d="M248.5,185.8l-1.6,1.6v5h-4.4V169h4.4v13l0.9-1.1l4.2-5h5.3l-6,6.9l6.5,9.6h-5.1L248.5,185.8z"/>
<path class="st15" d="M263.2,175.9l0.1,1.9c1.1-1.5,2.9-2.3,4.7-2.2c1.5-0.1,2.9,0.5,3.9,1.5c1,1.3,1.4,3,1.3,4.6v10.6h-4.4v-10.5
	c0.1-0.7-0.2-1.4-0.6-2c-0.6-0.5-1.3-0.7-2-0.6c-1.2-0.1-2.2,0.6-2.8,1.6v11.6H259v-16.5H263.2z"/>
<path class="st15" d="M275.9,184c0-1.5,0.3-3,0.9-4.4c0.6-1.2,1.5-2.3,2.7-3c1.3-0.7,2.7-1,4.1-1c2-0.1,4,0.6,5.4,2
	c1.5,1.5,2.3,3.5,2.4,5.5v1.1c0.1,2.2-0.7,4.4-2.1,6.1c-3.2,3-8.2,3-11.4,0c-1.5-1.7-2.2-3.9-2.1-6.2L275.9,184z M280.3,184.3
	c-0.1,1.3,0.2,2.5,0.9,3.6c1.1,1.4,3.1,1.6,4.4,0.6c0.2-0.2,0.4-0.3,0.6-0.6c0.7-1.2,1-2.6,0.9-3.9c0.1-1.3-0.2-2.5-0.9-3.6
	c-0.6-0.8-1.5-1.3-2.5-1.3c-1,0-1.9,0.4-2.5,1.2C280.5,181.6,280.2,182.9,280.3,184.3L280.3,184.3z"/>
<path class="st15" d="M308.6,186.4l2.2-10.5h4.3l-4.2,16.5h-3.7L304,182l-3.1,10.4h-3.7l-4.2-16.5h4.2l2.1,10.5l3-10.5h3.2
	L308.6,186.4z"/>
<path class="st15" d="M330.2,171.8v4h2.8v3.2h-2.8v8.2c0,0.5,0.1,0.9,0.4,1.3c0.4,0.3,0.9,0.5,1.3,0.4c0.4,0,0.9,0,1.3-0.1v3.4
	c-0.9,0.3-1.8,0.4-2.7,0.4c-3.1,0-4.7-1.6-4.7-4.7v-8.9h-2.4v-3.2h2.4v-4L330.2,171.8z"/>
<path class="st15" d="M339.8,177.7c1.1-1.3,2.7-2.1,4.4-2.1c3.6,0,5.4,2.1,5.4,6.2v10.6h-4.4v-10.4c0.1-0.8-0.2-1.5-0.6-2.1
	c-0.5-0.5-1.3-0.7-2-0.7c-1.1-0.1-2.2,0.5-2.8,1.5v11.7h-4.4V169h4.4L339.8,177.7z"/>
<path class="st15" d="M362.5,192.4c-0.2-0.5-0.4-1-0.4-1.5c-1.1,1.2-2.6,1.8-4.2,1.8c-1.5,0.1-2.9-0.4-4-1.4c-1-0.9-1.6-2.2-1.6-3.5
	c-0.1-1.6,0.7-3.1,1.9-4c1.7-1,3.6-1.5,5.6-1.4h2v-0.9c0-0.7-0.2-1.3-0.6-1.8c-0.5-0.5-1.2-0.7-1.9-0.7c-0.6,0-1.2,0.2-1.7,0.5
	c-0.4,0.4-0.7,0.9-0.6,1.5h-4.4c0-1,0.3-1.9,0.9-2.6c0.6-0.9,1.5-1.6,2.5-2c1.2-0.5,2.4-0.7,3.6-0.7c1.7-0.1,3.5,0.4,4.8,1.5
	c1.2,1.1,1.9,2.7,1.8,4.3v7.1c-0.1,1.2,0.2,2.4,0.7,3.6v0.3L362.5,192.4z M358.8,189.3c0.6,0,1.2-0.1,1.8-0.4
	c0.5-0.3,0.9-0.7,1.2-1.2v-2.8h-1.6c-2.2,0-3.4,0.8-3.5,2.3v0.3c0,0.5,0.2,1,0.6,1.4C357.7,189.2,358.3,189.3,358.8,189.3z"/>
<path class="st15" d="M374.9,171.8v4h2.8v3.2h-2.8v8.2c0,0.5,0.1,0.9,0.4,1.3c0.4,0.3,0.9,0.5,1.3,0.4c0.4,0,0.9,0,1.3-0.1v3.4
	c-0.9,0.3-1.8,0.4-2.7,0.4c-3.1,0-4.7-1.6-4.7-4.7v-8.9h-2.4v-3.2h2.4v-4L374.9,171.8z"/>
<path class="st15" d="M405,170.3v14.6c0.1,2.2-0.7,4.3-2.3,5.8c-1.7,1.5-4,2.2-6.2,2.1c-2.2,0.1-4.4-0.6-6.2-2
	c-1.6-1.5-2.4-3.5-2.3-5.6v-14.8h4.6v14.6c-0.1,1.2,0.2,2.3,1,3.2c0.8,0.7,1.8,1.1,2.9,1c2.6,0,3.9-1.3,3.9-4.1v-14.8H405z"/>
<path class="st15" d="M417,184.3h-3.6v8.1h-4.6v-22.1h8.3c2.1-0.1,4.3,0.5,6,1.7c1.5,1.2,2.3,3.1,2.1,5c0,1.3-0.3,2.6-1,3.8
	c-0.7,1.1-1.8,1.9-3,2.4l4.8,9.1v0.2h-4.9L417,184.3z M413.3,180.6h3.7c1,0.1,1.9-0.3,2.7-0.9c0.7-0.6,1-1.5,1-2.4
	c0-0.9-0.3-1.8-0.9-2.5c-0.8-0.7-1.7-1-2.7-0.9h-3.7V180.6z"/>
<path class="st15" d="M433.2,188.7h9.7v3.7h-14.3v-22.1h4.6L433.2,188.7z"/>
<path class="st15" d="M446.4,197.9l-2.3-1.2l0.5-1c0.6-1.1,1-2.4,1-3.7v-3.4h3.7v3c0,1.2-0.3,2.4-0.9,3.4
	C448.1,196.1,447.3,197.1,446.4,197.9z"/>
<path class="st15" d="M185.5,222.1c0.1,2.2-0.5,4.4-1.7,6.2c-1.1,1.5-2.9,2.3-4.7,2.2c-1.7,0.1-3.3-0.7-4.3-2.1l-0.2,1.8h-4v-23.4
	h4.4v8.4c1-1.2,2.5-1.8,4-1.8c1.8-0.1,3.6,0.8,4.7,2.2c1.2,1.8,1.8,4,1.7,6.2L185.5,222.1z M181.1,221.8c0.1-1.3-0.2-2.5-0.8-3.6
	c-0.5-0.8-1.4-1.2-2.4-1.1c-1.2-0.1-2.4,0.6-2.9,1.7v6.5c0.5,1.1,1.7,1.8,2.9,1.7c1.3,0.1,2.5-0.8,2.8-2.1
	C181.1,223.8,181.2,222.8,181.1,221.8z"/>
<path class="st15" d="M198.1,228.5c-1.1,1.3-2.8,2.1-4.5,2c-1.5,0.1-2.9-0.5-4-1.5c-1-1.3-1.5-2.8-1.4-4.5v-10.8h4.4v10.6
	c0,1.7,0.8,2.6,2.3,2.6c1.2,0.1,2.4-0.5,3.1-1.6v-11.7h4.4v16.5h-4.1L198.1,228.5z"/>
<path class="st15" d="M211,209.6v4.1h2.8v3.2H211v8.2c0,0.5,0.1,0.9,0.4,1.3c0.4,0.3,0.9,0.4,1.3,0.4c0.4,0,0.9,0,1.3-0.1v3.3
	c-0.9,0.3-1.8,0.4-2.7,0.4c-3.1,0-4.7-1.6-4.7-4.7v-8.9h-2.4v-3.2h2.4v-4.1L211,209.6z"/>
<path class="st15" d="M229.2,230.2h-4.6V208h4.6V230.2z"/>
<path class="st15" d="M235.6,209l-0.4,6.1h-2.8v-8.4h3.2V209z"/>
<path class="st15" d="M242,213.7l0.1,1.8c1.2-1.4,2.9-2.2,4.7-2.1c1.8-0.2,3.6,0.8,4.4,2.5c1.1-1.6,3-2.6,5-2.5c1.5-0.1,3,0.5,4,1.6
	c1,1.4,1.4,3,1.3,4.7v10.5H257v-10.5c0.1-0.7-0.1-1.4-0.5-2c-0.5-0.5-1.2-0.7-1.9-0.6c-1.2-0.1-2.4,0.7-2.7,1.9v11.3h-4.4v-10.5
	c0.1-0.7-0.1-1.5-0.6-2.1c-0.5-0.5-1.2-0.7-1.9-0.6c-1.1-0.1-2.2,0.5-2.7,1.6v11.6h-4.4v-16.5H242z"/>
<path class="st15" d="M282.2,230.2c-0.2-0.5-0.4-1-0.4-1.5c-1.1,1.2-2.6,1.8-4.2,1.8c-1.5,0-2.9-0.5-4-1.4c-1-0.9-1.6-2.2-1.6-3.5
	c-0.1-1.6,0.7-3.1,1.9-4c1.7-1,3.6-1.5,5.6-1.4h2v-0.9c0-0.7-0.2-1.3-0.6-1.8c-0.5-0.5-1.2-0.7-1.9-0.7c-0.6,0-1.2,0.2-1.7,0.5
	c-0.4,0.4-0.7,0.9-0.6,1.5h-4.4c0-1,0.3-1.9,0.9-2.6c0.6-0.8,1.5-1.5,2.5-1.9c1.2-0.5,2.4-0.7,3.6-0.7c1.7-0.1,3.5,0.4,4.8,1.5
	c1.2,1.1,1.9,2.7,1.8,4.3v7.1c-0.1,1.2,0.2,2.4,0.7,3.6v0.3L282.2,230.2z M278.5,227.1c0.6,0,1.2-0.1,1.8-0.4
	c0.5-0.3,0.9-0.7,1.2-1.2v-2.8h-1.6c-2.2,0-3.4,0.8-3.5,2.3v0.3c0,0.5,0.2,1,0.6,1.4C277.4,227,278,227.2,278.5,227.1L278.5,227.1z"
	/>
<path class="st15" d="M288.6,221.8c-0.1-2.2,0.5-4.3,1.7-6.1c1.1-1.5,2.9-2.4,4.7-2.3c1.5,0,3,0.6,4,1.8v-8.4h4.4v23.4h-4l-0.2-1.8
	c-1,1.3-2.6,2.1-4.2,2.1c-1.8,0-3.6-0.8-4.7-2.3C289.1,226.3,288.5,224.1,288.6,221.8z M293,222.1c-0.1,1.2,0.2,2.5,0.8,3.6
	c0.5,0.8,1.4,1.3,2.4,1.2c1.2,0.1,2.4-0.6,2.9-1.7v-6.5c-0.5-1.1-1.6-1.8-2.9-1.7C294.1,217,293,218.7,293,222.1L293,222.1z"/>
<path class="st15" d="M306.2,221.8c-0.1-2.2,0.5-4.3,1.7-6.1c1.1-1.5,2.9-2.4,4.7-2.3c1.5,0,3,0.6,4,1.8v-8.4h4.4v23.4h-4l-0.2-1.8
	c-1,1.3-2.6,2.1-4.2,2.1c-1.8,0-3.6-0.8-4.7-2.3C306.7,226.3,306.1,224.1,306.2,221.8z M310.6,222.1c-0.1,1.2,0.2,2.5,0.8,3.6
	c0.5,0.8,1.4,1.3,2.3,1.2c1.2,0.1,2.4-0.6,2.9-1.7v-6.5c-0.5-1.1-1.6-1.8-2.9-1.7C311.7,217,310.6,218.7,310.6,222.1z"/>
<path class="st15" d="M324.5,209.4c0-0.6,0.2-1.2,0.7-1.6c1-0.9,2.6-0.9,3.6,0c0.9,0.9,0.9,2.4,0,3.3c-1,0.9-2.5,0.9-3.6,0
	C324.7,210.7,324.4,210.1,324.5,209.4z M329.1,230.2h-4.4v-16.5h4.4V230.2z"/>
<path class="st15" d="M336.8,213.7l0.1,1.9c1.1-1.5,2.9-2.3,4.7-2.2c1.5-0.1,2.9,0.5,3.9,1.5c0.9,1.3,1.4,3,1.3,4.6v10.6h-4.4v-10.5
	c0.1-0.7-0.2-1.4-0.6-2c-0.6-0.5-1.3-0.7-2-0.6c-1.2-0.1-2.2,0.6-2.8,1.6v11.6h-4.4v-16.5H336.8z"/>
<path class="st15" d="M349.6,221.8c-0.1-2.2,0.5-4.3,1.8-6.1c1.1-1.5,3-2.4,4.9-2.3c1.6-0.1,3.2,0.6,4.2,1.9l0.2-1.6h4v15.9
	c0,1.3-0.3,2.6-1,3.8c-0.7,1.1-1.6,1.9-2.8,2.4c-1.3,0.6-2.7,0.9-4.2,0.8c-1.2,0-2.4-0.2-3.5-0.7c-1-0.4-1.9-1-2.6-1.9l2-2.7
	c1,1.2,2.5,1.9,4,1.8c1,0.1,2-0.3,2.7-0.9c0.7-0.7,1.1-1.7,1-2.7v-0.9c-1,1.1-2.5,1.8-4,1.7c-1.9,0-3.7-0.8-4.8-2.3
	c-1.3-1.8-1.9-4-1.8-6.2L349.6,221.8z M354,222.1c-0.1,1.2,0.2,2.5,0.9,3.5c0.5,0.8,1.5,1.3,2.5,1.3c1.2,0.1,2.3-0.5,2.9-1.5v-6.9
	c-0.6-1-1.7-1.6-2.9-1.5c-1,0-1.9,0.5-2.5,1.3C354.2,219.4,353.9,220.8,354,222.1z"/>
<path class="st15" d="M379.8,213.7l0.1,1.9c1.1-1.5,2.9-2.3,4.7-2.2c1.5-0.1,2.9,0.5,3.9,1.5c0.9,1.3,1.4,3,1.3,4.6v10.6h-4.4v-10.5
	c0.1-0.7-0.2-1.4-0.6-2c-0.6-0.5-1.3-0.7-2-0.6c-1.2-0.1-2.2,0.6-2.8,1.6v11.6h-4.4v-16.5H379.8z"/>
<path class="st15" d="M400.8,230.5c-2.2,0.1-4.3-0.7-5.9-2.2c-1.5-1.6-2.4-3.7-2.3-5.9v-0.4c0-1.5,0.3-3.1,1-4.4
	c0.6-1.2,1.5-2.3,2.7-3c1.2-0.7,2.6-1.1,4-1.1c2-0.1,3.9,0.7,5.3,2.1c1.4,1.7,2.1,3.9,1.9,6.1v1.8h-10.5c0.1,1,0.6,1.9,1.3,2.6
	c0.7,0.7,1.7,1,2.7,1c1.6,0.1,3-0.6,4-1.8l2.2,2.4c-0.7,1-1.6,1.7-2.7,2.2C403.4,230.3,402.1,230.5,400.8,230.5z M400.3,216.9
	c-0.8,0-1.6,0.3-2.1,0.9c-0.6,0.7-0.9,1.6-1,2.5h6.1V220c0-0.8-0.3-1.6-0.8-2.3C401.9,217.2,401.1,216.9,400.3,216.9L400.3,216.9z"
	/>
<path class="st15" d="M424.4,224.2l2.2-10.5h4.2l-4.2,16.5H423l-3.1-10.4l-3.1,10.4H413l-4.2-16.5h4.2l2.1,10.5l3-10.5h3.2
	L424.4,224.2z"/>
<path class="st15" d="M200.1,259.9c0.1,2.2-0.5,4.3-1.7,6.1c-1.1,1.5-2.8,2.3-4.7,2.3c-1.5,0-3-0.6-4-1.7v7.7h-4.4v-22.8h4.1
	l0.1,1.6c1-1.3,2.6-2,4.2-1.9c1.9-0.1,3.6,0.8,4.7,2.3c1.2,1.8,1.8,4,1.7,6.2L200.1,259.9z M195.7,259.6c0.1-1.2-0.2-2.5-0.8-3.5
	c-0.5-0.8-1.4-1.3-2.4-1.3c-1.2-0.1-2.3,0.5-2.9,1.6v6.8c0.5,1.1,1.7,1.7,2.9,1.6C194.7,264.7,195.7,263,195.7,259.6z"/>
<path class="st15" d="M212.4,268c-0.2-0.5-0.4-1-0.4-1.5c-1.1,1.2-2.6,1.8-4.1,1.8c-1.5,0-2.9-0.4-4-1.4c-1-0.9-1.6-2.2-1.6-3.5
	c-0.1-1.6,0.7-3.1,2-4c1.7-1,3.6-1.5,5.6-1.4h2v-1c0-0.7-0.2-1.3-0.6-1.8c-0.5-0.5-1.2-0.7-1.9-0.7c-0.6,0-1.2,0.2-1.8,0.5
	c-0.4,0.4-0.7,0.9-0.6,1.5h-4.4c0-1,0.3-1.9,0.9-2.7c0.6-0.9,1.5-1.5,2.5-1.9c1.1-0.5,2.4-0.7,3.6-0.7c1.7-0.1,3.5,0.4,4.8,1.5
	c1.2,1.1,1.9,2.7,1.8,4.3v7.1c-0.1,1.2,0.2,2.4,0.6,3.5v0.3L212.4,268z M208.8,264.9c0.6,0,1.2-0.1,1.8-0.4c0.5-0.3,0.9-0.7,1.2-1.2
	v-2.8h-1.6c-2.2,0-3.4,0.8-3.5,2.3v0.2c0,0.5,0.2,1,0.6,1.4C207.6,264.7,208.2,264.9,208.8,264.9z"/>
<path class="st15" d="M218.9,259.6c-0.1-2.2,0.5-4.3,1.8-6.1c1.1-1.5,3-2.4,4.9-2.3c1.6-0.1,3.2,0.6,4.2,1.9l0.2-1.6h4v15.9
	c0,1.3-0.3,2.6-1,3.8c-0.7,1.1-1.6,1.9-2.8,2.4c-1.3,0.6-2.7,0.9-4.2,0.8c-1.2,0-2.4-0.2-3.5-0.7c-1-0.4-1.9-1-2.6-1.9l1.9-2.7
	c1,1.2,2.5,1.9,4,1.8c1,0.1,2-0.3,2.7-0.9c0.7-0.7,1.1-1.7,1-2.7v-0.9c-1,1.1-2.5,1.8-4,1.7c-1.9,0-3.7-0.8-4.8-2.3
	c-1.3-1.8-1.9-4-1.8-6.2L218.9,259.6z M223.3,259.9c-0.1,1.2,0.2,2.5,0.9,3.5c0.5,0.8,1.5,1.3,2.5,1.3c1.2,0.1,2.3-0.5,2.9-1.5v-6.9
	c-0.6-1-1.7-1.6-2.8-1.5c-1,0-1.9,0.5-2.5,1.3C223.6,257.2,223.2,258.6,223.3,259.9L223.3,259.9z"/>
<path class="st15" d="M245,268.3c-2.2,0.1-4.3-0.7-5.9-2.2c-1.5-1.6-2.4-3.7-2.3-5.9v-0.4c0-1.5,0.3-3.1,1-4.4
	c0.6-1.2,1.5-2.3,2.7-3c1.2-0.7,2.6-1.1,4-1.1c2-0.1,3.9,0.7,5.3,2.1c1.4,1.7,2.1,3.9,1.9,6.1v1.8h-10.5c0.1,1,0.6,1.9,1.3,2.6
	c0.7,0.7,1.7,1,2.7,1c1.6,0.1,3-0.6,4-1.8l2.2,2.4c-0.7,1-1.6,1.7-2.7,2.2C247.5,268,246.3,268.3,245,268.3z M244.5,254.7
	c-0.8,0-1.6,0.3-2.1,0.9c-0.6,0.7-1,1.6-1.1,2.5h6.1v-0.4c0-0.8-0.3-1.6-0.8-2.3C246,255,245.3,254.7,244.5,254.7L244.5,254.7z"/>
<path class="st15" d="M263.2,263.4c0-0.5-0.3-1-0.8-1.3c-0.8-0.4-1.7-0.7-2.6-0.8c-3.9-0.8-5.9-2.5-5.9-5c0-1.4,0.7-2.8,1.8-3.7
	c1.4-1,3.1-1.5,4.8-1.5c1.8-0.1,3.6,0.4,5,1.5c1.2,0.9,1.9,2.3,1.9,3.8H263c0-0.6-0.2-1.1-0.6-1.6c-0.5-0.5-1.2-0.7-1.9-0.6
	c-0.6,0-1.2,0.1-1.7,0.5c-0.4,0.3-0.6,0.8-0.6,1.3c0,0.5,0.3,0.9,0.7,1.2c0.7,0.4,1.5,0.7,2.3,0.8c0.9,0.2,1.9,0.4,2.8,0.7
	c2.3,0.8,3.5,2.3,3.5,4.4c0,1.5-0.7,2.8-1.9,3.6c-1.5,1-3.2,1.5-5,1.4c-1.3,0-2.5-0.2-3.7-0.7c-1-0.4-1.9-1.1-2.5-2
	c-0.6-0.8-0.9-1.8-0.9-2.8h4.2c0,0.7,0.3,1.4,0.9,1.8c0.6,0.4,1.4,0.7,2.2,0.6c0.7,0,1.3-0.1,1.9-0.5
	C263,264.4,263.2,263.9,263.2,263.4z"/>
<path class="st15" d="M285.6,268.3c-2.2,0.1-4.3-0.7-5.9-2.2c-1.6-1.6-2.4-3.7-2.3-5.9v-0.4c0-1.5,0.3-3.1,1-4.4
	c0.6-1.2,1.5-2.3,2.7-3c1.2-0.7,2.6-1.1,4-1.1c2-0.1,3.9,0.7,5.3,2.1c1.4,1.7,2.1,3.9,1.9,6.1v1.8h-10.5c0.1,1,0.6,1.9,1.3,2.6
	c0.7,0.7,1.7,1,2.7,1c1.6,0.1,3-0.6,4-1.8l2.1,2.3c-0.7,1-1.6,1.7-2.7,2.2C288.2,268,286.9,268.3,285.6,268.3z M285.1,254.7
	c-0.8,0-1.6,0.3-2.1,0.9c-0.6,0.7-0.9,1.6-1,2.5h6v-0.4c0-0.8-0.3-1.6-0.8-2.3C286.7,255,285.9,254.7,285.1,254.7L285.1,254.7z"/>
<path class="st15" d="M300.9,262.6l3.1-11.1h4.6L303,268h-4.2l-5.5-16.5h4.6L300.9,262.6z"/>
<path class="st15" d="M317.9,268.3c-2.2,0.1-4.3-0.7-5.9-2.2c-1.6-1.6-2.4-3.7-2.3-5.9v-0.4c0-1.5,0.3-3.1,1-4.4
	c0.6-1.2,1.5-2.3,2.7-3c1.2-0.7,2.6-1.1,4-1.1c2-0.1,3.9,0.7,5.3,2.1c1.4,1.7,2.1,3.9,1.9,6.1v1.8h-10.5c0.1,1,0.6,1.9,1.3,2.6
	c0.7,0.7,1.7,1,2.7,1c1.6,0.1,3-0.6,4-1.8l2.2,2.4c-0.7,1-1.6,1.7-2.7,2.2C320.4,268,319.1,268.3,317.9,268.3z M317.3,254.7
	c-0.8,0-1.6,0.3-2.1,0.9c-0.6,0.7-0.9,1.6-1,2.5h6.1v-0.4c0-0.8-0.3-1.6-0.8-2.3C319,255,318.2,254.7,317.3,254.7L317.3,254.7z"/>
<path class="st15" d="M336.4,255.6c-0.5-0.1-1.1-0.1-1.6-0.1c-1.7,0-2.8,0.6-3.3,1.7V268h-4.4v-16.5h4.2l0.1,2
	c0.7-1.4,2.1-2.3,3.7-2.3c0.5,0,0.9,0.1,1.4,0.2L336.4,255.6z"/>
<path class="st15" d="M344.9,261.7l3-10.3h4.7l-6.6,19l-0.4,0.9c-0.8,2-2.7,3.3-4.9,3.2c-0.7,0-1.4-0.1-2-0.3V271h0.7
	c0.6,0,1.3-0.1,1.9-0.4c0.5-0.3,0.8-0.7,1-1.3l0.5-1.4l-5.8-16.5h4.7L344.9,261.7z"/>
<path class="st15" d="M361.5,259.6c-0.1-2.2,0.5-4.3,1.7-6.1c1.1-1.5,2.9-2.4,4.7-2.3c1.5,0,3,0.6,4,1.8v-8.4h4.4V268h-4l-0.2-1.8
	c-1,1.3-2.6,2.1-4.2,2.1c-1.8,0-3.6-0.8-4.7-2.3C362,264.1,361.4,261.9,361.5,259.6z M365.9,259.9c-0.1,1.2,0.2,2.5,0.8,3.6
	c0.5,0.8,1.4,1.3,2.4,1.2c1.2,0.1,2.4-0.6,2.9-1.7v-6.5c-0.5-1.1-1.6-1.8-2.9-1.7C367,254.8,365.9,256.5,365.9,259.9L365.9,259.9z"
	/>
<path class="st15" d="M389.3,268c-0.2-0.5-0.4-1-0.4-1.5c-1.1,1.2-2.6,1.8-4.1,1.8c-1.5,0-2.9-0.5-4-1.4c-1-0.9-1.6-2.2-1.6-3.5
	c-0.1-1.6,0.7-3.1,1.9-4c1.7-1,3.6-1.5,5.6-1.4h2v-1c0-0.7-0.2-1.3-0.6-1.8c-0.5-0.5-1.2-0.8-1.9-0.7c-0.6,0-1.2,0.2-1.7,0.5
	c-0.4,0.4-0.7,0.9-0.6,1.5h-4.4c0-1,0.3-1.9,0.9-2.7c0.6-0.9,1.5-1.5,2.5-1.9c1.1-0.5,2.4-0.7,3.6-0.7c1.7-0.1,3.5,0.5,4.8,1.5
	c1.2,1.1,1.9,2.7,1.8,4.3v7.1c-0.1,1.2,0.2,2.4,0.7,3.5v0.3L389.3,268z M385.7,264.9c0.6,0,1.2-0.1,1.8-0.4c0.5-0.3,0.9-0.7,1.2-1.2
	v-2.8H387c-2.2,0-3.4,0.8-3.5,2.3v0.2c0,0.5,0.2,1,0.6,1.4C384.5,264.7,385.1,264.9,385.7,264.9L385.7,264.9z"/>
<path class="st15" d="M402.4,261.7l3-10.3h4.7l-6.6,19l-0.4,0.9c-0.8,2-2.7,3.3-4.9,3.2c-0.7,0-1.3-0.1-2-0.3V271h0.7
	c0.6,0,1.3-0.1,1.9-0.4c0.5-0.3,0.8-0.8,1-1.3l0.5-1.4l-5.8-16.5h4.7L402.4,261.7z"/>
<path class="st15" d="M409.6,265.8c0-0.6,0.2-1.3,0.7-1.7c1-0.9,2.5-0.9,3.6,0c0.5,0.4,0.7,1.1,0.7,1.7c0,0.6-0.2,1.2-0.7,1.7
	c-1,0.9-2.5,0.9-3.6,0C409.8,267,409.6,266.4,409.6,265.8z"/>
</svg>
