<svg xmlns="http://www.w3.org/2000/svg" width="100%" height="100%" viewBox="0 0 250 50"><defs><style>.a{fill:#fff;}</style></defs><title>Artboard 2</title><path class="a" d="M121.16,27.55a8.55,8.55,0,0,0,8.54,8.55V19A8.55,8.55,0,0,0,121.16,27.55Z"/><circle class="a" cx="129.7" cy="7.97" r="2.95"/><path class="a" d="M16.47,41.41a2.09,2.09,0,0,1-1.94-1.35L6,17.24H5.81c.08.79.14,1.87.19,3.22s.08,2.76.08,4.23V39.8a1.61,1.61,0,0,1-1.6,1.61h0a1.6,1.6,0,0,1-1.6-1.61V16.87a3,3,0,0,1,3-3h0a3,3,0,0,1,2.84,2L16.5,36.42h.16l7.9-20.64a3,3,0,0,1,2.82-1.94h0a3,3,0,0,1,3,3V39.69a1.72,1.72,0,0,1-1.71,1.72h0A1.72,1.72,0,0,1,27,39.69V24.46c0-1.34,0-2.67.09-4s.13-2.38.18-3.21h-.16L18.4,40.07a2.05,2.05,0,0,1-1.93,1.34Z"/><path class="a" d="M46.56,27.39l6.72-12.68a1.62,1.62,0,0,1,1.44-.87h0a1.63,1.63,0,0,1,1.44,2.42L48.29,30.71v9a1.73,1.73,0,0,1-1.73,1.74h0a1.74,1.74,0,0,1-1.74-1.74v-8.8L37,16.29a1.66,1.66,0,0,1,1.46-2.45h0a1.66,1.66,0,0,1,1.47.88Z"/><path class="a" d="M99.19,13.84c3.43,0,6,.65,7.59,1.95a7.08,7.08,0,0,1,2.45,5.89,7.48,7.48,0,0,1-.81,3.66,6.89,6.89,0,0,1-2.07,2.36,10,10,0,0,1-2.64,1.35l6,9.74a1.72,1.72,0,0,1-1.46,2.62h0a1.75,1.75,0,0,1-1.49-.85L100.54,30H95.06v9.65a1.74,1.74,0,0,1-1.74,1.74h0a1.73,1.73,0,0,1-1.73-1.74V13.84Zm-.19,3H95.06V27.08h4.13q3.36,0,4.91-1.33a4.92,4.92,0,0,0,1.54-3.92A4.37,4.37,0,0,0,104,18,8.83,8.83,0,0,0,99,16.85Z"/><path class="a" d="M152.79,41.41h0a1.74,1.74,0,0,1-1.74-1.74V13.84h13.88a1.52,1.52,0,0,1,1.52,1.52h0a1.52,1.52,0,0,1-1.52,1.53H154.52v9.77h9.67a1.52,1.52,0,0,1,1.53,1.52h0a1.53,1.53,0,0,1-1.53,1.53h-9.67v10A1.74,1.74,0,0,1,152.79,41.41Z"/><path class="a" d="M181,41.41h0a1.74,1.74,0,0,1-1.74-1.74V16.89h-7.08a1.53,1.53,0,0,1-1.53-1.53h0a1.53,1.53,0,0,1,1.53-1.52h17.6a1.52,1.52,0,0,1,1.53,1.52h0a1.52,1.52,0,0,1-1.53,1.53h-7V39.67A1.74,1.74,0,0,1,181,41.41Z"/><path class="a" d="M247.12,15.46V39.67a1.73,1.73,0,0,1-1.73,1.74h0a1.74,1.74,0,0,1-1.74-1.74V15.46a1.74,1.74,0,0,1,1.74-1.74h0A1.73,1.73,0,0,1,247.12,15.46Z"/><path class="a" d="M233.46,40.34l-2.9-7.47H219.63l-2.88,7.49a1.63,1.63,0,0,1-1.52,1h0a1.64,1.64,0,0,1-1.53-2.23l9.34-24a2.29,2.29,0,0,1,2.13-1.46h0a2.29,2.29,0,0,1,2.13,1.46l9.29,23.94A1.69,1.69,0,0,1,235,41.41h0A1.68,1.68,0,0,1,233.46,40.34Zm-3.94-10.56-3.09-8.34c-.08-.2-.21-.57-.39-1.12s-.35-1.1-.52-1.67-.3-1-.41-1.34q-.3,1.2-.63,2.34c-.22.76-.41,1.36-.56,1.79l-3.13,8.34Z"/><path class="a" d="M73.55,41.55a14,14,0,1,1,9.93-24,1.6,1.6,0,1,1-2.27,2.26,10.84,10.84,0,1,0,.06,15.28,1.6,1.6,0,1,1,2.28,2.24A13.94,13.94,0,0,1,73.55,41.55Z"/><path class="a" d="M129.71,16.37a11.19,11.19,0,1,1-11.19,11.18,11.19,11.19,0,0,1,11.19-11.18m0-3.2a14.39,14.39,0,1,0,14.38,14.38,14.4,14.4,0,0,0-14.38-14.38Z"/></svg>
