<?xml version="1.0" encoding="utf-8"?>
<!-- Generator: Adobe Illustrator 23.0.1, SVG Export Plug-In . SVG Version: 6.00 Build 0)  -->
<svg version="1.1" id="Layer_1" xmlns="http://www.w3.org/2000/svg" xmlns:xlink="http://www.w3.org/1999/xlink" x="0px" y="0px"
	 viewBox="0 0 597.8 597.8" style="enable-background:new 0 0 597.8 597.8;" xml:space="preserve">
<style type="text/css">
	.st0{fill:#22A7F0;}
	.st1{opacity:0.3;fill:#354050;enable-background:new    ;}
	.st2{fill:#5D5E5E;}
	.st3{fill:#7F8080;}
	.st4{fill:url(#SVGID_1_);}
	.st5{fill:url(#SVGID_2_);}
	.st6{fill:#FFFFFF;}
	.st7{fill:#B8B8B8;}
	.st8{fill:#1B1C1C;}
	.st9{fill:url(#SVGID_3_);}
	.st10{fill:#4360A5;}
	.st11{fill:#C7D3EC;}
	.st12{fill:#212221;}
	.st13{fill:#F6FBFD;}
	.st14{fill:#050505;}
	.st15{enable-background:new    ;}
	.st16{fill:#354050;}
</style>
<title>Error404_circle</title>
<circle class="st0" cx="298.9" cy="298.9" r="298.9"/>
<ellipse class="st1" cx="301.2" cy="462.6" rx="127" ry="12.3"/>
<path class="st2" d="M211.6,460.4c0,0,1.2,1.5,0.4,2.7c-0.7,1.7-2.3,2.9-4.1,3.2c-2.8,0.7-9.8,1.2-13.9,0.3s-4.6-4.2-3.9-4.6
	C191.1,461.5,211.6,460.4,211.6,460.4z"/>
<path class="st3" d="M224.4,450.7c-3,0.6-5.7,2.1-7.7,4.4c-3.4,3.9-3.8,6-3.8,6s-0.3,0.8-3,1.5c-3.1,0.7-6.2,1-9.3,1
	c-3.1,0.1-6.3-0.2-9.3-0.9c-2.2-0.6-1.4-1.9-1.5-3.3s-1.6-15.9-3.2-21.3S224.4,450.7,224.4,450.7z"/>
<path class="st2" d="M388.3,460.1c0,0-1.2,1.5-0.4,2.7c0.7,1.7,2.3,2.9,4.1,3.2c2.8,0.7,9.8,1.2,13.9,0.3s4.6-4.2,3.9-4.6
	C408.7,461.2,388.3,460.1,388.3,460.1z"/>
<path class="st3" d="M375.5,450.3c3,0.6,5.7,2.1,7.7,4.4c3.4,3.9,3.8,6,3.8,6s0.3,0.8,3,1.5c3.1,0.7,6.2,1,9.3,1
	c3.1,0.1,6.3-0.2,9.3-0.9c2.2-0.6,1.5-1.9,1.5-3.2s1.6-15.9,3.2-21.3S375.5,450.3,375.5,450.3z"/>
<linearGradient id="SVGID_1_" gradientUnits="userSpaceOnUse" x1="295.847" y1="355.8946" x2="307.0818" y2="336.4234" gradientTransform="matrix(1 0 0 1 -0.96 -0.74)">
	<stop  offset="0.41" style="stop-color:#F1F1F2"/>
	<stop  offset="0.67" style="stop-color:#FFFFFF"/>
	<stop  offset="1" style="stop-color:#BBBDBF"/>
</linearGradient>
<path class="st4" d="M278.4,345.6l1.4-1.5c0,0,8-0.4,20.2-0.4s20.9,0.4,20.9,0.4l1.5,1.5H278.4z"/>
<linearGradient id="SVGID_2_" gradientUnits="userSpaceOnUse" x1="279.39" y1="348.09" x2="323.32" y2="348.09" gradientTransform="matrix(1 0 0 1 -0.96 -0.74)">
	<stop  offset="0" style="stop-color:#FFFFFF"/>
	<stop  offset="1" style="stop-color:#D0D2D3"/>
</linearGradient>
<path class="st5" d="M322.4,349.6h-43.9v-4c0,0,16.5-0.5,22-0.5s22,0.5,22,0.5L322.4,349.6z"/>
<path class="st6" d="M435.1,400c-4.1-21.2-37.3-42.4-86.5-48.2c-9.8-1.1-28.7-1.2-50.5-1.2c-16.2,0-30.9-0.2-41.4,0.7
	c-51,4.7-85.7,26.5-89.3,48.7c-1.3,8.1-0.5,17.5,2.6,21.9c15.5,21.9,69.6,29.9,131.2,29.9c63.2,0,116.7-5.1,130.8-27.9
	C434.4,420,436.7,408.2,435.1,400z"/>
<path class="st7" d="M435,409.4c0,38.3-53.8,48.9-134.1,48.9s-133.6-10.6-133.6-48.9c0-40.2,53.3-48.9,133.6-48.9
	S435,369.3,435,409.4z"/>
<path class="st8" d="M428.2,408.8c0,33.5-51.1,42.8-127.3,42.8s-126.8-9.3-126.8-42.8c0-35.2,50.7-42.8,126.8-42.8
	S428.2,373.6,428.2,408.8z"/>
<linearGradient id="SVGID_3_" gradientUnits="userSpaceOnUse" x1="295.4077" y1="363.1327" x2="309.1562" y2="339.3252" gradientTransform="matrix(1 0 0 1 -0.96 -0.74)">
	<stop  offset="0.32" style="stop-color:#F1F1F2"/>
	<stop  offset="0.77" style="stop-color:#FFFFFF"/>
	<stop  offset="1" style="stop-color:#BBBDBF"/>
</linearGradient>
<path class="st9" d="M274.2,350.7c0.3-0.4,0.7-0.8,1.1-1.1c0.7-0.6,1.7-0.9,2.6-0.8c1.5-0.1,11.5-0.3,22.9-0.3s20.5,0.2,22.7,0.3
	s2.9,0.2,3.6,0.8l1.1,1.1H274.2z"/>
<circle class="st10" cx="209.6" cy="406.9" r="24.3"/>
<circle class="st8" cx="209.6" cy="406.9" r="17"/>
<circle class="st11" cx="204.1" cy="387.2" r="3.5"/>
<circle class="st11" cx="215.4" cy="387.3" r="3.5"/>
<circle class="st11" cx="224.8" cy="393.1" r="3.5"/>
<circle class="st11" cx="229.8" cy="403" r="3.5"/>
<circle class="st11" cx="229" cy="413.7" r="3.5"/>
<circle class="st11" cx="223.7" cy="421.8" r="3.5"/>
<circle class="st11" cx="214.6" cy="426.8" r="3.5"/>
<circle class="st11" cx="204.6" cy="426.8" r="3.5"/>
<circle class="st11" cx="195.3" cy="421.6" r="3.5"/>
<circle class="st11" cx="190" cy="412.9" r="3.5"/>
<circle class="st11" cx="189.8" cy="401.9" r="3.5"/>
<circle class="st11" cx="195" cy="392.6" r="3.5"/>
<circle class="st10" cx="390.1" cy="406.9" r="24.3"/>
<circle class="st8" cx="390.1" cy="406.9" r="17"/>
<circle class="st11" cx="395.7" cy="387.2" r="3.5"/>
<circle class="st11" cx="384.4" cy="387.3" r="3.5"/>
<circle class="st11" cx="374.9" cy="393.1" r="3.5"/>
<circle class="st11" cx="370" cy="403" r="3.5"/>
<circle class="st11" cx="370.8" cy="413.7" r="3.5"/>
<circle class="st11" cx="376.1" cy="421.8" r="3.5"/>
<circle class="st11" cx="385.1" cy="426.8" r="3.5"/>
<circle class="st11" cx="395.2" cy="426.8" r="3.5"/>
<circle class="st11" cx="404.4" cy="421.6" r="3.5"/>
<circle class="st11" cx="409.7" cy="412.9" r="3.5"/>
<circle class="st11" cx="410" cy="401.9" r="3.5"/>
<circle class="st11" cx="404.8" cy="392.6" r="3.5"/>
<circle class="st12" cx="278.6" cy="414.2" r="1.5"/>
<circle class="st12" cx="278.6" cy="418.1" r="1.5"/>
<circle class="st12" cx="282.5" cy="414.2" r="1.5"/>
<circle class="st12" cx="282.5" cy="418.1" r="1.5"/>
<circle class="st12" cx="286.4" cy="414.2" r="1.5"/>
<circle class="st12" cx="286.4" cy="418.1" r="1.5"/>
<circle class="st12" cx="290.2" cy="414.2" r="1.5"/>
<circle class="st12" cx="290.2" cy="418.1" r="1.5"/>
<circle class="st12" cx="294.1" cy="414.2" r="1.5"/>
<circle class="st12" cx="294.1" cy="418.1" r="1.5"/>
<circle class="st12" cx="298" cy="414.2" r="1.5"/>
<circle class="st12" cx="298" cy="418.1" r="1.5"/>
<circle class="st12" cx="301.9" cy="414.2" r="1.5"/>
<circle class="st12" cx="301.9" cy="418.1" r="1.5"/>
<circle class="st12" cx="305.8" cy="414.2" r="1.5"/>
<circle class="st12" cx="305.8" cy="418.1" r="1.5"/>
<circle class="st12" cx="309.7" cy="414.2" r="1.5"/>
<circle class="st12" cx="309.7" cy="418.1" r="1.5"/>
<circle class="st12" cx="313.6" cy="414.2" r="1.5"/>
<circle class="st12" cx="313.6" cy="418.1" r="1.5"/>
<circle class="st12" cx="317.5" cy="414.2" r="1.5"/>
<circle class="st12" cx="317.5" cy="418.1" r="1.5"/>
<circle class="st12" cx="321.4" cy="414.2" r="1.5"/>
<circle class="st12" cx="321.4" cy="418.1" r="1.5"/>
<circle class="st12" cx="278.6" cy="422" r="1.5"/>
<circle class="st12" cx="282.5" cy="422" r="1.5"/>
<circle class="st12" cx="286.4" cy="422" r="1.5"/>
<circle class="st12" cx="290.2" cy="422" r="1.5"/>
<circle class="st12" cx="294.1" cy="422" r="1.5"/>
<circle class="st12" cx="298" cy="422" r="1.5"/>
<circle class="st12" cx="301.9" cy="422" r="1.5"/>
<circle class="st12" cx="305.8" cy="422" r="1.5"/>
<circle class="st12" cx="309.7" cy="422" r="1.5"/>
<circle class="st12" cx="313.6" cy="422" r="1.5"/>
<circle class="st12" cx="317.5" cy="422" r="1.5"/>
<circle class="st12" cx="321.4" cy="422" r="1.5"/>
<circle class="st12" cx="278.6" cy="406.4" r="1.5"/>
<circle class="st12" cx="278.6" cy="410.3" r="1.5"/>
<circle class="st12" cx="282.5" cy="406.4" r="1.5"/>
<circle class="st12" cx="282.5" cy="410.3" r="1.5"/>
<circle class="st12" cx="286.4" cy="406.4" r="1.5"/>
<circle class="st12" cx="286.4" cy="410.3" r="1.5"/>
<circle class="st12" cx="290.2" cy="406.4" r="1.5"/>
<circle class="st12" cx="290.2" cy="410.3" r="1.5"/>
<circle class="st12" cx="294.1" cy="406.4" r="1.5"/>
<circle class="st12" cx="294.1" cy="410.3" r="1.5"/>
<circle class="st12" cx="298" cy="406.4" r="1.5"/>
<circle class="st12" cx="298" cy="410.3" r="1.5"/>
<circle class="st12" cx="301.9" cy="406.4" r="1.5"/>
<circle class="st12" cx="301.9" cy="410.3" r="1.5"/>
<circle class="st12" cx="305.8" cy="406.4" r="1.5"/>
<circle class="st12" cx="305.8" cy="410.3" r="1.5"/>
<circle class="st12" cx="309.7" cy="406.4" r="1.5"/>
<circle class="st12" cx="309.7" cy="410.3" r="1.5"/>
<circle class="st12" cx="313.6" cy="406.4" r="1.5"/>
<circle class="st12" cx="313.6" cy="410.3" r="1.5"/>
<circle class="st12" cx="317.5" cy="406.4" r="1.5"/>
<circle class="st12" cx="317.5" cy="410.3" r="1.5"/>
<circle class="st12" cx="321.4" cy="406.4" r="1.5"/>
<circle class="st12" cx="321.4" cy="410.3" r="1.5"/>
<circle class="st12" cx="278.6" cy="402.5" r="1.5"/>
<circle class="st12" cx="282.5" cy="402.5" r="1.5"/>
<circle class="st12" cx="286.4" cy="402.5" r="1.5"/>
<circle class="st12" cx="290.2" cy="402.5" r="1.5"/>
<circle class="st12" cx="294.1" cy="402.5" r="1.5"/>
<circle class="st12" cx="298" cy="402.5" r="1.5"/>
<circle class="st12" cx="301.9" cy="402.5" r="1.5"/>
<circle class="st12" cx="305.8" cy="402.5" r="1.5"/>
<circle class="st12" cx="309.7" cy="402.5" r="1.5"/>
<circle class="st12" cx="313.6" cy="402.5" r="1.5"/>
<circle class="st12" cx="317.5" cy="402.5" r="1.5"/>
<circle class="st12" cx="321.4" cy="402.5" r="1.5"/>
<circle class="st12" cx="278.6" cy="394.8" r="1.5"/>
<circle class="st12" cx="278.6" cy="398.6" r="1.5"/>
<circle class="st12" cx="282.5" cy="394.8" r="1.5"/>
<circle class="st12" cx="282.5" cy="398.6" r="1.5"/>
<circle class="st12" cx="286.4" cy="394.8" r="1.5"/>
<circle class="st12" cx="286.4" cy="398.6" r="1.5"/>
<circle class="st12" cx="290.2" cy="394.8" r="1.5"/>
<circle class="st12" cx="290.2" cy="398.6" r="1.5"/>
<circle class="st12" cx="294.1" cy="394.8" r="1.5"/>
<circle class="st12" cx="294.1" cy="398.6" r="1.5"/>
<circle class="st12" cx="298" cy="394.8" r="1.5"/>
<circle class="st12" cx="298" cy="398.6" r="1.5"/>
<circle class="st12" cx="301.9" cy="394.8" r="1.5"/>
<circle class="st12" cx="301.9" cy="398.6" r="1.5"/>
<circle class="st12" cx="305.8" cy="394.8" r="1.5"/>
<circle class="st12" cx="305.8" cy="398.6" r="1.5"/>
<circle class="st12" cx="309.7" cy="394.8" r="1.5"/>
<circle class="st12" cx="309.7" cy="398.6" r="1.5"/>
<circle class="st12" cx="313.6" cy="394.8" r="1.5"/>
<circle class="st12" cx="313.6" cy="398.6" r="1.5"/>
<circle class="st12" cx="317.5" cy="394.8" r="1.5"/>
<circle class="st12" cx="317.5" cy="398.6" r="1.5"/>
<circle class="st12" cx="321.4" cy="394.8" r="1.5"/>
<circle class="st12" cx="321.4" cy="398.6" r="1.5"/>
<circle class="st12" cx="325.3" cy="414.2" r="1.5"/>
<circle class="st12" cx="325.3" cy="418.1" r="1.5"/>
<circle class="st12" cx="329.2" cy="414.2" r="1.5"/>
<circle class="st12" cx="329.2" cy="418.1" r="1.5"/>
<circle class="st12" cx="333.1" cy="414.2" r="1.5"/>
<circle class="st12" cx="333.1" cy="418.1" r="1.5"/>
<circle class="st12" cx="337" cy="414.2" r="1.5"/>
<circle class="st12" cx="337" cy="418.1" r="1.5"/>
<circle class="st12" cx="340.9" cy="414.2" r="1.5"/>
<circle class="st12" cx="340.9" cy="418.1" r="1.5"/>
<circle class="st12" cx="344.8" cy="414.2" r="1.5"/>
<circle class="st12" cx="344.8" cy="418.1" r="1.5"/>
<circle class="st12" cx="348.7" cy="414.2" r="1.5"/>
<circle class="st12" cx="348.7" cy="418.1" r="1.5"/>
<circle class="st12" cx="352.6" cy="414.2" r="1.5"/>
<circle class="st12" cx="352.6" cy="418.1" r="1.5"/>
<circle class="st12" cx="356.5" cy="414.2" r="1.5"/>
<circle class="st12" cx="356.5" cy="418.1" r="1.5"/>
<circle class="st12" cx="360.4" cy="414.2" r="1.5"/>
<circle class="st12" cx="360.4" cy="418.1" r="1.5"/>
<circle class="st12" cx="325.3" cy="422" r="1.5"/>
<circle class="st12" cx="329.2" cy="422" r="1.5"/>
<circle class="st12" cx="333.1" cy="422" r="1.5"/>
<circle class="st12" cx="337" cy="422" r="1.5"/>
<circle class="st12" cx="340.9" cy="422" r="1.5"/>
<circle class="st12" cx="344.8" cy="422" r="1.5"/>
<circle class="st12" cx="348.7" cy="422" r="1.5"/>
<circle class="st12" cx="352.6" cy="422" r="1.5"/>
<circle class="st12" cx="356.5" cy="422" r="1.5"/>
<circle class="st12" cx="360.4" cy="422" r="1.5"/>
<circle class="st12" cx="325.3" cy="406.4" r="1.5"/>
<circle class="st12" cx="325.3" cy="410.3" r="1.5"/>
<circle class="st12" cx="329.2" cy="406.4" r="1.5"/>
<circle class="st12" cx="329.2" cy="410.3" r="1.5"/>
<circle class="st12" cx="333.1" cy="406.4" r="1.5"/>
<circle class="st12" cx="333.1" cy="410.3" r="1.5"/>
<circle class="st12" cx="337" cy="406.4" r="1.5"/>
<circle class="st12" cx="337" cy="410.3" r="1.5"/>
<circle class="st12" cx="340.9" cy="406.4" r="1.5"/>
<circle class="st12" cx="340.9" cy="410.3" r="1.5"/>
<circle class="st12" cx="344.8" cy="406.4" r="1.5"/>
<circle class="st12" cx="344.8" cy="410.3" r="1.5"/>
<circle class="st12" cx="348.7" cy="406.4" r="1.5"/>
<circle class="st12" cx="348.7" cy="410.3" r="1.5"/>
<circle class="st12" cx="352.6" cy="406.4" r="1.5"/>
<circle class="st12" cx="352.6" cy="410.3" r="1.5"/>
<circle class="st12" cx="356.5" cy="406.4" r="1.5"/>
<circle class="st12" cx="356.5" cy="410.3" r="1.5"/>
<circle class="st12" cx="360.4" cy="406.4" r="1.5"/>
<circle class="st12" cx="360.4" cy="410.3" r="1.5"/>
<circle class="st12" cx="325.3" cy="402.5" r="1.5"/>
<circle class="st12" cx="329.2" cy="402.5" r="1.5"/>
<circle class="st12" cx="333.1" cy="402.5" r="1.5"/>
<circle class="st12" cx="337" cy="402.5" r="1.5"/>
<circle class="st12" cx="340.9" cy="402.5" r="1.5"/>
<circle class="st12" cx="344.8" cy="402.5" r="1.5"/>
<circle class="st12" cx="348.7" cy="402.5" r="1.5"/>
<circle class="st12" cx="352.6" cy="402.5" r="1.5"/>
<circle class="st12" cx="356.5" cy="402.5" r="1.5"/>
<circle class="st12" cx="360.4" cy="402.5" r="1.5"/>
<circle class="st12" cx="325.3" cy="394.8" r="1.5"/>
<circle class="st12" cx="325.3" cy="398.6" r="1.5"/>
<circle class="st12" cx="239.6" cy="414.2" r="1.5"/>
<circle class="st12" cx="239.6" cy="418.1" r="1.5"/>
<circle class="st12" cx="243.5" cy="414.2" r="1.5"/>
<circle class="st12" cx="243.5" cy="418.1" r="1.5"/>
<circle class="st12" cx="247.4" cy="414.2" r="1.5"/>
<circle class="st12" cx="247.4" cy="418.1" r="1.5"/>
<circle class="st12" cx="251.3" cy="414.2" r="1.5"/>
<circle class="st12" cx="251.3" cy="418.1" r="1.5"/>
<ellipse transform="matrix(0.1602 -0.9871 0.9871 0.1602 -194.5301 599.7574)" class="st12" cx="255.2" cy="414.2" rx="1.5" ry="1.5"/>
<ellipse transform="matrix(0.1602 -0.9871 0.9871 0.1602 -198.3797 603.0327)" class="st12" cx="255.2" cy="418.1" rx="1.5" ry="1.5"/>
<circle class="st12" cx="259.1" cy="414.2" r="1.5"/>
<circle class="st12" cx="259.1" cy="418.1" r="1.5"/>
<circle class="st12" cx="263" cy="414.2" r="1.5"/>
<circle class="st12" cx="263" cy="418.1" r="1.5"/>
<circle class="st12" cx="266.9" cy="414.2" r="1.5"/>
<circle class="st12" cx="266.9" cy="418.1" r="1.5"/>
<circle class="st12" cx="270.8" cy="414.2" r="1.5"/>
<circle class="st12" cx="270.8" cy="418.1" r="1.5"/>
<circle class="st12" cx="274.7" cy="414.2" r="1.5"/>
<circle class="st12" cx="274.7" cy="418.1" r="1.5"/>
<circle class="st12" cx="239.6" cy="422" r="1.5"/>
<circle class="st12" cx="243.5" cy="422" r="1.5"/>
<circle class="st12" cx="247.4" cy="422" r="1.5"/>
<circle class="st12" cx="251.3" cy="422" r="1.5"/>
<ellipse transform="matrix(0.1602 -0.9871 0.9871 0.1602 -202.2293 606.308)" class="st12" cx="255.2" cy="422" rx="1.5" ry="1.5"/>
<circle class="st12" cx="259.1" cy="422" r="1.5"/>
<circle class="st12" cx="263" cy="422" r="1.5"/>
<circle class="st12" cx="266.9" cy="422" r="1.5"/>
<circle class="st12" cx="270.8" cy="422" r="1.5"/>
<circle class="st12" cx="274.7" cy="422" r="1.5"/>
<circle class="st12" cx="239.6" cy="406.4" r="1.5"/>
<circle class="st12" cx="239.6" cy="410.3" r="1.5"/>
<circle class="st12" cx="243.5" cy="406.4" r="1.5"/>
<circle class="st12" cx="243.5" cy="410.3" r="1.5"/>
<circle class="st12" cx="247.4" cy="406.4" r="1.5"/>
<circle class="st12" cx="247.4" cy="410.3" r="1.5"/>
<circle class="st12" cx="251.3" cy="406.4" r="1.5"/>
<circle class="st12" cx="251.3" cy="410.3" r="1.5"/>
<ellipse transform="matrix(0.1602 -0.9871 0.9871 0.1602 -186.8308 593.2068)" class="st12" cx="255.2" cy="406.4" rx="1.5" ry="1.5"/>
<ellipse transform="matrix(0.1602 -0.9871 0.9871 0.1602 -190.6804 596.4821)" class="st12" cx="255.2" cy="410.3" rx="1.5" ry="1.5"/>
<circle class="st12" cx="259.1" cy="406.4" r="1.5"/>
<circle class="st12" cx="259.1" cy="410.3" r="1.5"/>
<circle class="st12" cx="263" cy="406.4" r="1.5"/>
<circle class="st12" cx="263" cy="410.3" r="1.5"/>
<circle class="st12" cx="266.9" cy="406.4" r="1.5"/>
<circle class="st12" cx="266.9" cy="410.3" r="1.5"/>
<circle class="st12" cx="270.8" cy="406.4" r="1.5"/>
<circle class="st12" cx="270.8" cy="410.3" r="1.5"/>
<circle class="st12" cx="274.7" cy="406.4" r="1.5"/>
<circle class="st12" cx="274.7" cy="410.3" r="1.5"/>
<circle class="st12" cx="239.6" cy="402.5" r="1.5"/>
<circle class="st12" cx="243.5" cy="402.5" r="1.5"/>
<circle class="st12" cx="247.4" cy="402.5" r="1.5"/>
<circle class="st12" cx="251.3" cy="402.5" r="1.5"/>
<ellipse transform="matrix(0.1602 -0.9871 0.9871 0.1602 -182.9811 589.9315)" class="st12" cx="255.2" cy="402.5" rx="1.5" ry="1.5"/>
<circle class="st12" cx="259.1" cy="402.5" r="1.5"/>
<circle class="st12" cx="263" cy="402.5" r="1.5"/>
<circle class="st12" cx="266.9" cy="402.5" r="1.5"/>
<circle class="st12" cx="270.8" cy="402.5" r="1.5"/>
<circle class="st12" cx="274.7" cy="402.5" r="1.5"/>
<circle class="st12" cx="239.6" cy="394.8" r="1.5"/>
<circle class="st12" cx="239.6" cy="398.6" r="1.5"/>
<circle class="st12" cx="243.5" cy="394.8" r="1.5"/>
<circle class="st12" cx="243.5" cy="398.6" r="1.5"/>
<circle class="st12" cx="247.4" cy="394.8" r="1.5"/>
<circle class="st12" cx="247.4" cy="398.6" r="1.5"/>
<circle class="st12" cx="251.3" cy="394.8" r="1.5"/>
<circle class="st12" cx="251.3" cy="398.6" r="1.5"/>
<ellipse transform="matrix(0.1602 -0.9871 0.9871 0.1602 -175.3806 583.4649)" class="st12" cx="255.2" cy="394.8" rx="1.5" ry="1.5"/>
<ellipse transform="matrix(0.1602 -0.9871 0.9871 0.1602 -179.1315 586.6562)" class="st12" cx="255.2" cy="398.6" rx="1.5" ry="1.5"/>
<circle class="st12" cx="259.1" cy="394.8" r="1.5"/>
<circle class="st12" cx="259.1" cy="398.6" r="1.5"/>
<circle class="st12" cx="263" cy="394.8" r="1.5"/>
<circle class="st12" cx="263" cy="398.6" r="1.5"/>
<circle class="st12" cx="266.9" cy="394.8" r="1.5"/>
<circle class="st12" cx="266.9" cy="398.6" r="1.5"/>
<circle class="st12" cx="270.8" cy="394.8" r="1.5"/>
<circle class="st12" cx="270.8" cy="398.6" r="1.5"/>
<circle class="st12" cx="274.7" cy="394.8" r="1.5"/>
<circle class="st12" cx="274.7" cy="398.6" r="1.5"/>
<circle class="st12" cx="329.2" cy="394.8" r="1.5"/>
<circle class="st12" cx="329.2" cy="398.6" r="1.5"/>
<circle class="st12" cx="333.1" cy="394.8" r="1.5"/>
<circle class="st12" cx="333.1" cy="398.6" r="1.5"/>
<circle class="st12" cx="337" cy="394.8" r="1.5"/>
<circle class="st12" cx="337" cy="398.6" r="1.5"/>
<circle class="st12" cx="340.9" cy="394.8" r="1.5"/>
<circle class="st12" cx="340.9" cy="398.6" r="1.5"/>
<circle class="st12" cx="344.8" cy="394.8" r="1.5"/>
<circle class="st12" cx="344.8" cy="398.6" r="1.5"/>
<circle class="st12" cx="348.7" cy="394.8" r="1.5"/>
<circle class="st12" cx="348.7" cy="398.6" r="1.5"/>
<circle class="st12" cx="352.6" cy="394.8" r="1.5"/>
<circle class="st12" cx="352.6" cy="398.6" r="1.5"/>
<circle class="st12" cx="356.5" cy="394.8" r="1.5"/>
<circle class="st12" cx="356.5" cy="398.6" r="1.5"/>
<circle class="st12" cx="360.4" cy="394.8" r="1.5"/>
<circle class="st12" cx="360.4" cy="398.6" r="1.5"/>
<circle class="st13" cx="243.5" cy="414.2" r="1.5"/>
<circle class="st13" cx="247.4" cy="414.2" r="1.5"/>
<circle class="st13" cx="239.6" cy="410.3" r="1.5"/>
<circle class="st13" cx="259.1" cy="410.4" r="1.5"/>
<circle class="st13" cx="259.1" cy="414.3" r="1.5"/>
<circle class="st13" cx="239.6" cy="402.5" r="1.5"/>
<circle class="st13" cx="239.6" cy="406.4" r="1.5"/>
<circle class="st13" cx="251.3" cy="410.3" r="1.5"/>
<circle class="st13" cx="251.3" cy="402.5" r="1.5"/>
<circle class="st13" cx="251.3" cy="406.4" r="1.5"/>
<circle class="st13" cx="259.1" cy="406.5" r="1.5"/>
<circle class="st13" cx="266.9" cy="406.5" r="1.5"/>
<circle class="st13" cx="259.1" cy="402.6" r="1.5"/>
<circle class="st13" cx="263" cy="402.6" r="1.5"/>
<circle class="st13" cx="266.9" cy="402.6" r="1.5"/>
<circle class="st13" cx="263" cy="410.4" r="1.5"/>
<circle class="st13" cx="266.9" cy="410.4" r="1.5"/>
<circle class="st13" cx="290.2" cy="414.2" r="1.5"/>
<circle class="st13" cx="290.2" cy="406.4" r="1.5"/>
<circle class="st13" cx="290.2" cy="410.3" r="1.5"/>
<circle class="st13" cx="290.2" cy="402.5" r="1.5"/>
<circle class="st13" cx="294.1" cy="410.3" r="1.5"/>
<circle class="st13" cx="294.1" cy="402.5" r="1.5"/>
<circle class="st13" cx="298" cy="414.2" r="1.5"/>
<circle class="st13" cx="298" cy="406.4" r="1.5"/>
<circle class="st13" cx="298" cy="410.3" r="1.5"/>
<circle class="st13" cx="298" cy="402.5" r="1.5"/>
<circle class="st13" cx="305.8" cy="402.5" r="1.5"/>
<circle class="st13" cx="313.6" cy="402.5" r="1.5"/>
<circle class="st13" cx="274.7" cy="414.2" r="1.5"/>
<circle class="st13" cx="274.7" cy="410.3" r="1.5"/>
<circle class="st13" cx="274.7" cy="402.5" r="1.5"/>
<circle class="st13" cx="278.6" cy="402.5" r="1.5"/>
<circle class="st13" cx="274.7" cy="406.4" r="1.5"/>
<circle class="st13" cx="282.5" cy="410.3" r="1.5"/>
<circle class="st13" cx="282.5" cy="406.4" r="1.5"/>
<circle class="st13" cx="278.6" cy="414.2" r="1.5"/>
<circle class="st13" cx="309.7" cy="414.2" r="1.5"/>
<circle class="st13" cx="309.7" cy="410.3" r="1.5"/>
<circle class="st13" cx="309.7" cy="402.5" r="1.5"/>
<circle class="st13" cx="309.7" cy="406.4" r="1.5"/>
<circle class="st13" cx="321.4" cy="414.2" r="1.5"/>
<circle class="st13" cx="321.4" cy="410.3" r="1.5"/>
<circle class="st13" cx="321.4" cy="402.5" r="1.5"/>
<circle class="st13" cx="321.4" cy="406.4" r="1.5"/>
<circle class="st13" cx="329.2" cy="414.2" r="1.5"/>
<circle class="st13" cx="329.2" cy="410.3" r="1.5"/>
<circle class="st13" cx="337" cy="410.3" r="1.5"/>
<circle class="st13" cx="329.2" cy="402.5" r="1.5"/>
<circle class="st13" cx="329.2" cy="406.4" r="1.5"/>
<circle class="st13" cx="348.7" cy="414.2" r="1.5"/>
<circle class="st13" cx="348.7" cy="410.3" r="1.5"/>
<circle class="st13" cx="348.7" cy="402.5" r="1.5"/>
<circle class="st13" cx="352.6" cy="414.2" r="1.5"/>
<circle class="st13" cx="352.6" cy="402.5" r="1.5"/>
<circle class="st13" cx="356.5" cy="414.2" r="1.5"/>
<circle class="st13" cx="356.5" cy="410.3" r="1.5"/>
<circle class="st13" cx="356.5" cy="402.5" r="1.5"/>
<circle class="st13" cx="348.7" cy="406.4" r="1.5"/>
<circle class="st13" cx="333.1" cy="406.4" r="1.5"/>
<circle class="st13" cx="340.8" cy="414.2" r="1.5"/>
<circle class="st13" cx="340.8" cy="410.3" r="1.5"/>
<circle class="st13" cx="340.8" cy="402.5" r="1.5"/>
<circle class="st13" cx="340.8" cy="406.4" r="1.5"/>
<circle class="st14" cx="299.5" cy="374.7" r="0.8"/>
<circle class="st14" cx="296.8" cy="375.3" r="0.8"/>
<circle class="st14" cx="296.8" cy="378.3" r="0.8"/>
<circle class="st14" cx="297.6" cy="382.1" r="0.8"/>
<circle class="st14" cx="295.1" cy="380.7" r="0.8"/>
<circle class="st14" cx="294.4" cy="376.9" r="0.8"/>
<circle class="st14" cx="292.8" cy="379.3" r="0.8"/>
<circle class="st14" cx="292.3" cy="382.1" r="0.8"/>
<circle class="st14" cx="295.1" cy="383.5" r="0.8"/>
<circle class="st14" cx="292.8" cy="384.9" r="0.8"/>
<circle class="st14" cx="296.8" cy="385.9" r="0.8"/>
<circle class="st14" cx="296.8" cy="388.9" r="0.8"/>
<circle class="st14" cx="294.4" cy="387.3" r="0.8"/>
<circle class="st14" cx="302.4" cy="375.3" r="0.8"/>
<circle class="st14" cx="302.4" cy="378.3" r="0.8"/>
<circle class="st14" cx="301.6" cy="382.1" r="0.8"/>
<circle class="st14" cx="304.1" cy="380.7" r="0.8"/>
<circle class="st14" cx="304.7" cy="376.9" r="0.8"/>
<circle class="st14" cx="306.3" cy="379.3" r="0.8"/>
<circle class="st14" cx="306.8" cy="382.1" r="0.8"/>
<circle class="st14" cx="304.1" cy="383.5" r="0.8"/>
<circle class="st14" cx="306.3" cy="384.9" r="0.8"/>
<circle class="st14" cx="302.4" cy="385.9" r="0.8"/>
<circle class="st14" cx="302.3" cy="388.9" r="0.8"/>
<circle class="st14" cx="304.7" cy="387.3" r="0.8"/>
<circle class="st14" cx="299.5" cy="377.4" r="0.8"/>
<circle class="st14" cx="299.5" cy="380" r="0.8"/>
<circle class="st14" cx="299.5" cy="384.1" r="0.8"/>
<circle class="st14" cx="299.5" cy="386.8" r="0.8"/>
<circle class="st14" cx="299.5" cy="389.4" r="0.8"/>
<path class="st6" d="M493.7,166.5c-0.9-7.4-6.6-13.4-14-14.7c-24.6-4.3-85.8-13-179.4-13s-154.8,8.7-179.4,13
	c-7.4,1.3-13.1,7.3-14,14.7c-1.5,12.2-3.4,31.9-3.4,51.6s1.9,39.3,3.4,51.6c0.9,7.4,6.6,13.4,14,14.7c22.5,3.9,75.7,11.5,156.4,12.8
	l23,28.2l23-28.2c80.7-1.3,133.9-8.8,156.4-12.8c7.4-1.3,13.1-7.3,14-14.7c1.5-12.2,3.4-31.9,3.4-51.6S495.2,178.7,493.7,166.5z"/>
<g class="st15">
	<path class="st16" d="M139.5,185.8c0-0.8-0.3-1.5-0.9-1.9c-0.6-0.5-1.7-0.9-3.2-1.4c-1.5-0.5-2.8-1-3.7-1.5
		c-2.5-1.3-3.7-3.1-3.7-5.4c0-1.2,0.3-2.2,1-3.1c0.7-0.9,1.6-1.6,2.8-2.1c1.2-0.5,2.6-0.8,4.2-0.8c1.5,0,2.9,0.3,4.1,0.8
		s2.1,1.4,2.8,2.4c0.7,1,1,2.2,1,3.5h-4.5c0-1-0.3-1.8-0.9-2.3c-0.6-0.5-1.5-0.8-2.6-0.8c-1.1,0-1.9,0.2-2.5,0.7s-0.9,1.1-0.9,1.8
		c0,0.7,0.4,1.3,1.1,1.8c0.7,0.5,1.8,0.9,3.1,1.3c2.5,0.8,4.4,1.7,5.5,2.8c1.2,1.1,1.7,2.5,1.7,4.2c0,1.9-0.7,3.3-2.1,4.4
		c-1.4,1.1-3.3,1.6-5.7,1.6c-1.7,0-3.2-0.3-4.6-0.9c-1.4-0.6-2.4-1.4-3.1-2.5s-1.1-2.3-1.1-3.7h4.5c0,2.4,1.4,3.6,4.3,3.6
		c1.1,0,1.9-0.2,2.5-0.6C139.2,187.2,139.5,186.6,139.5,185.8z"/>
	<path class="st16" d="M146.1,183.3c0-1.6,0.3-3,0.9-4.3c0.6-1.2,1.5-2.2,2.7-2.9c1.2-0.7,2.5-1,4-1c2.2,0,3.9,0.7,5.3,2
		c1.4,1.3,2.1,3.1,2.3,5.4l0,1.1c0,2.5-0.7,4.5-2.1,5.9c-1.4,1.5-3.2,2.2-5.5,2.2s-4.2-0.7-5.6-2.2c-1.4-1.5-2.1-3.5-2.1-6.1V183.3z
		 M150.4,183.6c0,1.5,0.3,2.7,0.9,3.5s1.4,1.2,2.5,1.2c1,0,1.9-0.4,2.4-1.2c0.6-0.8,0.9-2.1,0.9-3.8c0-1.5-0.3-2.7-0.9-3.5
		c-0.6-0.8-1.4-1.2-2.5-1.2c-1.1,0-1.9,0.4-2.4,1.2S150.4,181.9,150.4,183.6z"/>
	<path class="st16" d="M173,179.5c-0.6-0.1-1.1-0.1-1.5-0.1c-1.6,0-2.7,0.5-3.2,1.7v10.5h-4.3v-16.1h4.1l0.1,1.9
		c0.9-1.5,2.1-2.2,3.6-2.2c0.5,0,0.9,0.1,1.3,0.2L173,179.5z"/>
	<path class="st16" d="M184.1,179.5c-0.6-0.1-1.1-0.1-1.5-0.1c-1.6,0-2.7,0.5-3.2,1.7v10.5h-4.3v-16.1h4.1l0.1,1.9
		c0.9-1.5,2.1-2.2,3.6-2.2c0.5,0,0.9,0.1,1.3,0.2L184.1,179.5z"/>
	<path class="st16" d="M192.5,185.4l3-10h4.6l-6.5,18.6l-0.4,0.8c-1,2.1-2.5,3.2-4.8,3.2c-0.6,0-1.3-0.1-1.9-0.3v-3.3l0.7,0
		c0.8,0,1.4-0.1,1.8-0.4s0.7-0.7,0.9-1.2l0.5-1.3l-5.6-16.1h4.6L192.5,185.4z"/>
	<path class="st16" d="M200.4,197l-2.2-1.2l0.5-1c0.7-1.2,1-2.4,1-3.6v-3.3h3.6l0,3c0,1.1-0.3,2.2-0.8,3.3
		C201.9,195.3,201.2,196.2,200.4,197z"/>
	<path class="st16" d="M228.3,185.7l2.1-10.2h4.2l-4.1,16.1h-3.6l-3-10.1l-3,10.1h-3.6l-4.1-16.1h4.2l2.1,10.2l2.9-10.2h3.1
		L228.3,185.7z"/>
	<path class="st16" d="M244.1,191.8c-2.4,0-4.3-0.7-5.8-2.2c-1.5-1.4-2.2-3.4-2.2-5.8v-0.4c0-1.6,0.3-3.1,0.9-4.3
		c0.6-1.3,1.5-2.3,2.7-2.9s2.5-1,3.9-1c2.2,0,3.9,0.7,5.2,2.1s1.9,3.4,1.9,5.9v1.8h-10.2c0.1,1.1,0.6,1.9,1.3,2.5s1.6,1,2.7,1
		c1.7,0,3-0.6,3.9-1.8l2.1,2.4c-0.6,0.9-1.5,1.6-2.6,2.1C246.6,191.6,245.4,191.8,244.1,191.8z M243.6,178.6c-0.9,0-1.5,0.3-2.1,0.9
		c-0.5,0.6-0.9,1.4-1,2.5h6v-0.3c0-1-0.3-1.7-0.8-2.2C245.2,178.9,244.5,178.6,243.6,178.6z"/>
	<path class="st16" d="M270,191.5c-0.2-0.4-0.3-0.9-0.4-1.4c-1,1.2-2.4,1.7-4.1,1.7c-1.6,0-2.9-0.5-3.9-1.4c-1-0.9-1.6-2.1-1.6-3.5
		c0-1.7,0.6-3,1.9-3.9c1.3-0.9,3.1-1.4,5.5-1.4h2v-0.9c0-0.7-0.2-1.3-0.6-1.8s-1-0.7-1.8-0.7c-0.7,0-1.3,0.2-1.7,0.5
		c-0.4,0.3-0.6,0.8-0.6,1.4h-4.3c0-0.9,0.3-1.8,0.9-2.6c0.6-0.8,1.4-1.4,2.4-1.9s2.2-0.7,3.5-0.7c2,0,3.6,0.5,4.7,1.5
		c1.2,1,1.7,2.4,1.7,4.2v7c0,1.5,0.2,2.7,0.6,3.5v0.3H270z M266.5,188.5c0.6,0,1.2-0.1,1.8-0.4c0.5-0.3,0.9-0.7,1.2-1.1v-2.8h-1.6
		c-2.2,0-3.3,0.7-3.4,2.2l0,0.3c0,0.5,0.2,1,0.6,1.3C265.3,188.4,265.8,188.5,266.5,188.5z"/>
	<path class="st16" d="M286.1,179.5c-0.6-0.1-1.1-0.1-1.5-0.1c-1.6,0-2.7,0.5-3.2,1.7v10.5h-4.3v-16.1h4.1l0.1,1.9
		c0.9-1.5,2.1-2.2,3.6-2.2c0.5,0,0.9,0.1,1.3,0.2L286.1,179.5z"/>
	<path class="st16" d="M295.3,191.8c-2.4,0-4.3-0.7-5.8-2.2c-1.5-1.4-2.2-3.4-2.2-5.8v-0.4c0-1.6,0.3-3.1,0.9-4.3
		c0.6-1.3,1.5-2.3,2.7-2.9s2.5-1,3.9-1c2.2,0,3.9,0.7,5.2,2.1c1.3,1.4,1.9,3.4,1.9,5.9v1.8h-10.2c0.1,1.1,0.6,1.9,1.3,2.5
		s1.6,1,2.7,1c1.7,0,3-0.6,3.9-1.8l2.1,2.4c-0.6,0.9-1.5,1.6-2.6,2.1C297.9,191.6,296.6,191.8,295.3,191.8z M294.8,178.6
		c-0.9,0-1.5,0.3-2.1,0.9c-0.5,0.6-0.9,1.4-1,2.5h6v-0.3c0-1-0.3-1.7-0.8-2.2C296.4,178.9,295.7,178.6,294.8,178.6z"/>
	<path class="st16" d="M321.6,189.9c-1.1,1.3-2.5,1.9-4.4,1.9c-1.7,0-3-0.5-3.9-1.5c-0.9-1-1.4-2.4-1.4-4.4v-10.5h4.3v10.4
		c0,1.7,0.8,2.5,2.3,2.5c1.5,0,2.5-0.5,3-1.5v-11.4h4.3v16.1h-4L321.6,189.9z"/>
	<path class="st16" d="M343.5,183.6c0,2.5-0.6,4.5-1.7,6c-1.1,1.5-2.6,2.2-4.6,2.2c-1.6,0-2.9-0.6-3.9-1.7v7.6H329v-22.3h4l0.1,1.6
		c1-1.2,2.4-1.9,4.1-1.9c2,0,3.5,0.7,4.6,2.2s1.7,3.5,1.7,6.1V183.6z M339.2,183.3c0-1.5-0.3-2.7-0.8-3.5c-0.5-0.8-1.3-1.2-2.3-1.2
		c-1.3,0-2.3,0.5-2.8,1.5v6.6c0.5,1.1,1.5,1.6,2.8,1.6C338.2,188.4,339.2,186.7,339.2,183.3z"/>
	<path class="st16" d="M345.5,183.4c0-2.5,0.6-4.5,1.8-6c1.2-1.5,2.8-2.3,4.8-2.3c1.8,0,3.1,0.6,4.1,1.8l0.2-1.5h3.9V191
		c0,1.4-0.3,2.6-1,3.7c-0.6,1-1.5,1.8-2.7,2.4c-1.2,0.5-2.5,0.8-4.1,0.8c-1.2,0-2.3-0.2-3.5-0.7c-1.1-0.5-2-1.1-2.5-1.8l1.9-2.6
		c1.1,1.2,2.4,1.8,3.9,1.8c1.1,0,2-0.3,2.7-0.9c0.6-0.6,1-1.5,1-2.6v-0.9c-1,1.1-2.3,1.7-3.9,1.7c-1.9,0-3.5-0.8-4.7-2.3
		c-1.2-1.5-1.8-3.5-1.8-6V183.4z M349.8,183.7c0,1.5,0.3,2.6,0.9,3.4c0.6,0.8,1.4,1.2,2.4,1.2c1.3,0,2.2-0.5,2.8-1.5v-6.8
		c-0.6-1-1.5-1.5-2.8-1.5c-1,0-1.8,0.4-2.4,1.3C350.1,180.7,349.8,182,349.8,183.7z"/>
	<path class="st16" d="M372.6,179.5c-0.6-0.1-1.1-0.1-1.5-0.1c-1.6,0-2.7,0.5-3.2,1.7v10.5h-4.3v-16.1h4.1l0.1,1.9
		c0.9-1.5,2.1-2.2,3.6-2.2c0.5,0,0.9,0.1,1.3,0.2L372.6,179.5z"/>
	<path class="st16" d="M383.5,191.5c-0.2-0.4-0.3-0.9-0.4-1.4c-1,1.2-2.4,1.7-4.1,1.7c-1.6,0-2.9-0.5-3.9-1.4
		c-1-0.9-1.6-2.1-1.6-3.5c0-1.7,0.6-3,1.9-3.9c1.3-0.9,3.1-1.4,5.5-1.4h2v-0.9c0-0.7-0.2-1.3-0.6-1.8s-1-0.7-1.8-0.7
		c-0.7,0-1.3,0.2-1.7,0.5c-0.4,0.3-0.6,0.8-0.6,1.4h-4.3c0-0.9,0.3-1.8,0.9-2.6c0.6-0.8,1.4-1.4,2.4-1.9c1.1-0.5,2.2-0.7,3.5-0.7
		c2,0,3.6,0.5,4.7,1.5c1.2,1,1.7,2.4,1.7,4.2v7c0,1.5,0.2,2.7,0.6,3.5v0.3H383.5z M380,188.5c0.6,0,1.2-0.1,1.8-0.4
		c0.5-0.3,0.9-0.7,1.2-1.1v-2.8h-1.6c-2.2,0-3.3,0.7-3.4,2.2l0,0.3c0,0.5,0.2,1,0.6,1.3C378.8,188.4,379.3,188.5,380,188.5z"/>
	<path class="st16" d="M389.9,183.4c0-2.5,0.6-4.5,1.7-6c1.1-1.5,2.7-2.2,4.6-2.2c1.6,0,2.9,0.6,3.9,1.8v-8.2h4.3v22.9h-3.9
		l-0.2-1.7c-1.1,1.3-2.4,2-4.1,2c-1.9,0-3.4-0.7-4.6-2.2C390.4,188.1,389.9,186,389.9,183.4z M394.2,183.7c0,1.5,0.3,2.7,0.8,3.5
		c0.5,0.8,1.3,1.2,2.3,1.2c1.3,0,2.3-0.6,2.8-1.7v-6.4c-0.5-1.1-1.5-1.7-2.8-1.7C395.2,178.6,394.2,180.3,394.2,183.7z"/>
	<path class="st16" d="M407.7,171.3c0-0.6,0.2-1.2,0.6-1.6c0.4-0.4,1-0.6,1.8-0.6c0.7,0,1.3,0.2,1.8,0.6c0.4,0.4,0.7,0.9,0.7,1.6
		c0,0.7-0.2,1.2-0.7,1.6c-0.4,0.4-1,0.6-1.7,0.6c-0.7,0-1.3-0.2-1.7-0.6C407.9,172.5,407.7,171.9,407.7,171.3z M412.2,191.5h-4.3
		v-16.1h4.3V191.5z"/>
	<path class="st16" d="M419.7,175.4l0.1,1.9c1.2-1.4,2.7-2.2,4.6-2.2c1.7,0,3,0.5,3.8,1.5s1.3,2.5,1.3,4.5v10.4h-4.3v-10.3
		c0-0.9-0.2-1.6-0.6-2c-0.4-0.4-1.1-0.6-2-0.6c-1.2,0-2.1,0.5-2.7,1.5v11.4h-4.3v-16.1H419.7z"/>
	<path class="st16" d="M432.2,183.4c0-2.5,0.6-4.5,1.8-6c1.2-1.5,2.8-2.3,4.8-2.3c1.8,0,3.1,0.6,4.1,1.8l0.2-1.5h3.9V191
		c0,1.4-0.3,2.6-1,3.7c-0.6,1-1.5,1.8-2.7,2.4c-1.2,0.5-2.5,0.8-4.1,0.8c-1.2,0-2.3-0.2-3.5-0.7c-1.1-0.5-2-1.1-2.5-1.8l1.9-2.6
		c1.1,1.2,2.4,1.8,3.9,1.8c1.1,0,2-0.3,2.7-0.9c0.6-0.6,1-1.5,1-2.6v-0.9c-1,1.1-2.3,1.7-3.9,1.7c-1.9,0-3.5-0.8-4.7-2.3
		c-1.2-1.5-1.8-3.5-1.8-6V183.4z M436.5,183.7c0,1.5,0.3,2.6,0.9,3.4c0.6,0.8,1.4,1.2,2.4,1.2c1.3,0,2.2-0.5,2.8-1.5v-6.8
		c-0.6-1-1.5-1.5-2.8-1.5c-1,0-1.8,0.4-2.4,1.3C436.8,180.7,436.5,182,436.5,183.7z"/>
</g>
<g class="st15">
	<path class="st16" d="M137.2,219.9c0-1.6,0.3-3,0.9-4.3c0.6-1.2,1.5-2.2,2.7-2.9c1.2-0.7,2.5-1,4-1c2.2,0,3.9,0.7,5.3,2
		c1.4,1.3,2.1,3.1,2.3,5.4l0,1.1c0,2.5-0.7,4.5-2.1,5.9c-1.4,1.5-3.2,2.2-5.5,2.2s-4.2-0.7-5.6-2.2c-1.4-1.5-2.1-3.5-2.1-6.1V219.9z
		 M141.5,220.2c0,1.5,0.3,2.7,0.9,3.5s1.4,1.2,2.5,1.2c1,0,1.9-0.4,2.4-1.2c0.6-0.8,0.9-2.1,0.9-3.8c0-1.5-0.3-2.7-0.9-3.5
		c-0.6-0.8-1.4-1.2-2.5-1.2c-1.1,0-1.9,0.4-2.4,1.2S141.5,218.5,141.5,220.2z"/>
	<path class="st16" d="M164.8,226.5c-1.1,1.3-2.5,1.9-4.4,1.9c-1.7,0-3-0.5-3.9-1.5c-0.9-1-1.4-2.4-1.4-4.4V212h4.3v10.4
		c0,1.7,0.8,2.5,2.3,2.5c1.5,0,2.5-0.5,3-1.5V212h4.3v16.1h-4L164.8,226.5z"/>
	<path class="st16" d="M181.2,216.1c-0.6-0.1-1.1-0.1-1.5-0.1c-1.6,0-2.7,0.5-3.2,1.7v10.5h-4.3V212h4.1l0.1,1.9
		c0.9-1.5,2.1-2.2,3.6-2.2c0.5,0,0.9,0.1,1.3,0.2L181.2,216.1z"/>
	<path class="st16" d="M204.9,222.3L207,212h4.2l-4.1,16.1h-3.6l-3-10.1l-3,10.1h-3.6l-4.1-16.1h4.2l2.1,10.2l2.9-10.2h3.1
		L204.9,222.3z"/>
	<path class="st16" d="M220.7,228.4c-2.4,0-4.3-0.7-5.8-2.2c-1.5-1.4-2.2-3.4-2.2-5.8v-0.4c0-1.6,0.3-3.1,0.9-4.3
		c0.6-1.3,1.5-2.3,2.7-2.9s2.5-1,3.9-1c2.2,0,3.9,0.7,5.2,2.1s1.9,3.4,1.9,5.9v1.8H217c0.1,1.1,0.6,1.9,1.3,2.5s1.6,1,2.7,1
		c1.7,0,3-0.6,3.9-1.8l2.1,2.4c-0.6,0.9-1.5,1.6-2.6,2.1C223.2,228.2,222,228.4,220.7,228.4z M220.2,215.2c-0.9,0-1.5,0.3-2.1,0.9
		c-0.5,0.6-0.9,1.4-1,2.5h6v-0.3c0-1-0.3-1.7-0.8-2.2C221.8,215.5,221.1,215.2,220.2,215.2z"/>
	<path class="st16" d="M244.2,220.2c0,2.6-0.6,4.6-1.7,6c-1.1,1.4-2.6,2.2-4.6,2.2c-1.7,0-3.1-0.7-4.2-2l-0.2,1.7h-3.9v-22.9h4.3
		v8.2c1-1.2,2.3-1.7,3.9-1.7c2,0,3.5,0.7,4.6,2.2s1.7,3.5,1.7,6.1V220.2z M239.9,219.9c0-1.6-0.3-2.8-0.8-3.6
		c-0.5-0.7-1.3-1.1-2.3-1.1c-1.4,0-2.3,0.6-2.8,1.7v6.4c0.5,1.1,1.5,1.7,2.9,1.7c1.4,0,2.3-0.7,2.7-2.1
		C239.8,222.3,239.9,221.3,239.9,219.9z"/>
	<path class="st16" d="M255.6,223.7c0-0.5-0.3-0.9-0.8-1.2c-0.5-0.3-1.4-0.6-2.5-0.8c-3.8-0.8-5.7-2.4-5.7-4.9
		c0-1.4,0.6-2.6,1.8-3.6c1.2-1,2.7-1.4,4.6-1.4c2,0,3.7,0.5,4.9,1.4c1.2,1,1.8,2.2,1.8,3.7h-4.3c0-0.6-0.2-1.1-0.6-1.5
		c-0.4-0.4-1-0.6-1.9-0.6c-0.7,0-1.3,0.2-1.7,0.5c-0.4,0.3-0.6,0.7-0.6,1.2c0,0.5,0.2,0.9,0.7,1.2c0.5,0.3,1.2,0.5,2.3,0.8
		c1.1,0.2,2,0.5,2.7,0.7c2.3,0.8,3.4,2.3,3.4,4.3c0,1.5-0.6,2.7-1.9,3.6c-1.3,0.9-2.9,1.4-4.9,1.4c-1.3,0-2.5-0.2-3.6-0.7
		c-1-0.5-1.9-1.1-2.5-2c-0.6-0.8-0.9-1.7-0.9-2.7h4.1c0,0.8,0.3,1.3,0.8,1.8c0.5,0.4,1.2,0.6,2.1,0.6c0.8,0,1.4-0.2,1.9-0.5
		C255.4,224.6,255.6,224.2,255.6,223.7z"/>
	<path class="st16" d="M262.5,207.9c0-0.6,0.2-1.2,0.6-1.6c0.4-0.4,1-0.6,1.8-0.6c0.7,0,1.3,0.2,1.8,0.6c0.4,0.4,0.7,0.9,0.7,1.6
		c0,0.7-0.2,1.2-0.7,1.6c-0.4,0.4-1,0.6-1.7,0.6c-0.7,0-1.3-0.2-1.7-0.6C262.7,209.1,262.5,208.5,262.5,207.9z M267.1,228.1h-4.3
		V212h4.3V228.1z"/>
	<path class="st16" d="M275.8,208.1v4h2.8v3.2h-2.8v8c0,0.6,0.1,1,0.3,1.3s0.7,0.4,1.3,0.4c0.5,0,0.9,0,1.3-0.1v3.3
		c-0.8,0.3-1.7,0.4-2.6,0.4c-3,0-4.6-1.5-4.6-4.6v-8.7h-2.4V212h2.4v-4H275.8z"/>
	<path class="st16" d="M288.3,228.4c-2.4,0-4.3-0.7-5.8-2.2c-1.5-1.4-2.2-3.4-2.2-5.8v-0.4c0-1.6,0.3-3.1,0.9-4.3
		c0.6-1.3,1.5-2.3,2.7-2.9s2.5-1,3.9-1c2.2,0,3.9,0.7,5.2,2.1s1.9,3.4,1.9,5.9v1.8h-10.2c0.1,1.1,0.6,1.9,1.3,2.5s1.6,1,2.7,1
		c1.7,0,3-0.6,3.9-1.8l2.1,2.4c-0.6,0.9-1.5,1.6-2.6,2.1C290.9,228.2,289.7,228.4,288.3,228.4z M287.8,215.2c-0.9,0-1.5,0.3-2.1,0.9
		c-0.5,0.6-0.9,1.4-1,2.5h6v-0.3c0-1-0.3-1.7-0.8-2.2C289.5,215.5,288.7,215.2,287.8,215.2z"/>
	<path class="st16" d="M314,216.1c-0.6-0.1-1.1-0.1-1.5-0.1c-1.6,0-2.7,0.5-3.2,1.7v10.5H305V212h4.1l0.1,1.9
		c0.9-1.5,2.1-2.2,3.6-2.2c0.5,0,0.9,0.1,1.3,0.2L314,216.1z"/>
	<path class="st16" d="M316.1,207.9c0-0.6,0.2-1.2,0.6-1.6c0.4-0.4,1-0.6,1.8-0.6c0.7,0,1.3,0.2,1.8,0.6c0.4,0.4,0.7,0.9,0.7,1.6
		c0,0.7-0.2,1.2-0.7,1.6c-0.4,0.4-1,0.6-1.7,0.6c-0.7,0-1.3-0.2-1.7-0.6C316.3,209.1,316.1,208.5,316.1,207.9z M320.6,228.1h-4.3
		V212h4.3V228.1z"/>
	<path class="st16" d="M323.5,220c0-2.5,0.6-4.5,1.8-6c1.2-1.5,2.8-2.3,4.8-2.3c1.8,0,3.1,0.6,4.1,1.8l0.2-1.5h3.9v15.6
		c0,1.4-0.3,2.6-1,3.7c-0.6,1-1.5,1.8-2.7,2.4c-1.2,0.5-2.5,0.8-4.1,0.8c-1.2,0-2.3-0.2-3.5-0.7c-1.1-0.5-2-1.1-2.5-1.8l1.9-2.6
		c1.1,1.2,2.4,1.8,3.9,1.8c1.1,0,2-0.3,2.7-0.9c0.6-0.6,1-1.5,1-2.6v-0.9c-1,1.1-2.3,1.7-3.9,1.7c-1.9,0-3.5-0.8-4.7-2.3
		c-1.2-1.5-1.8-3.5-1.8-6V220z M327.8,220.3c0,1.5,0.3,2.6,0.9,3.4c0.6,0.8,1.4,1.2,2.4,1.2c1.3,0,2.2-0.5,2.8-1.5v-6.8
		c-0.6-1-1.5-1.5-2.8-1.5c-1,0-1.8,0.4-2.4,1.3C328.1,217.3,327.8,218.6,327.8,220.3z"/>
	<path class="st16" d="M345.7,213.8c1.1-1.4,2.6-2.1,4.3-2.1c3.5,0,5.3,2,5.3,6.1v10.3h-4.3v-10.2c0-0.9-0.2-1.6-0.6-2
		s-1.1-0.7-2-0.7c-1.3,0-2.2,0.5-2.7,1.5v11.4h-4.3v-22.9h4.3V213.8z"/>
	<path class="st16" d="M363.8,208.1v4h2.8v3.2h-2.8v8c0,0.6,0.1,1,0.3,1.3c0.2,0.3,0.7,0.4,1.3,0.4c0.5,0,0.9,0,1.3-0.1v3.3
		c-0.8,0.3-1.7,0.4-2.6,0.4c-3,0-4.6-1.5-4.6-4.6v-8.7h-2.4V212h2.4v-4H363.8z"/>
	<path class="st16" d="M380.4,212l0.1,1.9c1.2-1.4,2.7-2.2,4.6-2.2c1.7,0,3,0.5,3.8,1.5s1.3,2.5,1.3,4.5v10.4H386v-10.3
		c0-0.9-0.2-1.6-0.6-2c-0.4-0.4-1.1-0.6-2-0.6c-1.2,0-2.1,0.5-2.7,1.5v11.4h-4.3V212H380.4z"/>
	<path class="st16" d="M392.9,219.9c0-1.6,0.3-3,0.9-4.3s1.5-2.2,2.7-2.9c1.2-0.7,2.5-1,4-1c2.2,0,3.9,0.7,5.3,2s2.1,3.1,2.3,5.4
		l0,1.1c0,2.5-0.7,4.5-2.1,5.9c-1.4,1.5-3.2,2.2-5.5,2.2c-2.3,0-4.2-0.7-5.6-2.2c-1.4-1.5-2.1-3.5-2.1-6.1V219.9z M397.2,220.2
		c0,1.5,0.3,2.7,0.9,3.5s1.4,1.2,2.5,1.2c1,0,1.9-0.4,2.4-1.2s0.9-2.1,0.9-3.8c0-1.5-0.3-2.7-0.9-3.5s-1.4-1.2-2.5-1.2
		c-1.1,0-1.9,0.4-2.4,1.2S397.2,218.5,397.2,220.2z"/>
	<path class="st16" d="M424.8,222.3l2.1-10.2h4.2l-4.1,16.1h-3.6l-3-10.1l-3,10.1h-3.6l-4.1-16.1h4.2l2.1,10.2l2.9-10.2h3.1
		L424.8,222.3z"/>
	<path class="st16" d="M431.5,226c0-0.7,0.2-1.2,0.7-1.7c0.5-0.4,1-0.6,1.7-0.6c0.7,0,1.3,0.2,1.7,0.6c0.5,0.4,0.7,1,0.7,1.7
		c0,0.7-0.2,1.2-0.7,1.6c-0.5,0.4-1,0.6-1.8,0.6c-0.7,0-1.3-0.2-1.7-0.6C431.8,227.2,431.5,226.7,431.5,226z"/>
</g>
<g class="st15">
	<path class="st16" d="M148.1,257v7.6h-4.5V243h8.4c1.6,0,3.1,0.3,4.3,0.9c1.2,0.6,2.2,1.4,2.8,2.5c0.7,1.1,1,2.3,1,3.7
		c0,2.1-0.7,3.8-2.2,5c-1.5,1.2-3.5,1.8-6,1.8H148.1z M148.1,253.4h4c1.2,0,2.1-0.3,2.7-0.8c0.6-0.6,0.9-1.3,0.9-2.4
		c0-1.1-0.3-1.9-0.9-2.6c-0.6-0.7-1.5-1-2.6-1h-4.1V253.4z"/>
	<path class="st16" d="M167.6,264.6h-4.3v-22.9h4.3V264.6z"/>
	<path class="st16" d="M178.5,264.9c-2.4,0-4.3-0.7-5.8-2.2c-1.5-1.4-2.2-3.4-2.2-5.8v-0.4c0-1.6,0.3-3.1,0.9-4.3
		c0.6-1.3,1.5-2.3,2.7-2.9s2.5-1,3.9-1c2.2,0,3.9,0.7,5.2,2.1s1.9,3.4,1.9,5.9v1.8h-10.2c0.1,1.1,0.6,1.9,1.3,2.5s1.6,1,2.7,1
		c1.7,0,3-0.6,3.9-1.8l2.1,2.4c-0.6,0.9-1.5,1.6-2.6,2.1C181.1,264.7,179.9,264.9,178.5,264.9z M178,251.7c-0.9,0-1.5,0.3-2.1,0.9
		c-0.5,0.6-0.9,1.4-1,2.5h6v-0.3c0-1-0.3-1.7-0.8-2.2C179.7,252,179,251.7,178,251.7z"/>
	<path class="st16" d="M196.9,264.6c-0.2-0.4-0.3-0.9-0.4-1.4c-1,1.2-2.4,1.7-4.1,1.7c-1.6,0-2.9-0.5-3.9-1.4
		c-1-0.9-1.6-2.1-1.6-3.5c0-1.7,0.6-3,1.9-3.9c1.3-0.9,3.1-1.4,5.5-1.4h2v-0.9c0-0.7-0.2-1.3-0.6-1.8s-1-0.7-1.8-0.7
		c-0.7,0-1.3,0.2-1.7,0.5c-0.4,0.3-0.6,0.8-0.6,1.4h-4.3c0-0.9,0.3-1.8,0.9-2.6c0.6-0.8,1.4-1.4,2.4-1.9s2.2-0.7,3.5-0.7
		c2,0,3.6,0.5,4.7,1.5c1.2,1,1.7,2.4,1.7,4.2v7c0,1.5,0.2,2.7,0.6,3.5v0.3H196.9z M193.4,261.6c0.6,0,1.2-0.1,1.8-0.4
		c0.5-0.3,0.9-0.7,1.2-1.1v-2.8h-1.6c-2.2,0-3.3,0.7-3.4,2.2l0,0.3c0,0.5,0.2,1,0.6,1.3C192.2,261.5,192.7,261.6,193.4,261.6z"/>
	<path class="st16" d="M212.6,260.2c0-0.5-0.3-0.9-0.8-1.2c-0.5-0.3-1.4-0.6-2.5-0.8c-3.8-0.8-5.7-2.4-5.7-4.9
		c0-1.4,0.6-2.6,1.8-3.6c1.2-1,2.7-1.4,4.6-1.4c2,0,3.7,0.5,4.9,1.4c1.2,1,1.8,2.2,1.8,3.7h-4.3c0-0.6-0.2-1.1-0.6-1.5
		c-0.4-0.4-1-0.6-1.9-0.6c-0.7,0-1.3,0.2-1.7,0.5c-0.4,0.3-0.6,0.7-0.6,1.2c0,0.5,0.2,0.9,0.7,1.2c0.5,0.3,1.2,0.5,2.3,0.8
		c1.1,0.2,2,0.5,2.7,0.7c2.3,0.8,3.4,2.3,3.4,4.3c0,1.5-0.6,2.7-1.9,3.6c-1.3,0.9-2.9,1.4-4.9,1.4c-1.3,0-2.5-0.2-3.6-0.7
		c-1-0.5-1.9-1.1-2.5-2c-0.6-0.8-0.9-1.7-0.9-2.7h4.1c0,0.8,0.3,1.3,0.8,1.8c0.5,0.4,1.2,0.6,2.1,0.6c0.8,0,1.4-0.2,1.9-0.5
		C212.4,261.1,212.6,260.7,212.6,260.2z"/>
	<path class="st16" d="M227,264.9c-2.4,0-4.3-0.7-5.8-2.2c-1.5-1.4-2.2-3.4-2.2-5.8v-0.4c0-1.6,0.3-3.1,0.9-4.3
		c0.6-1.3,1.5-2.3,2.7-2.9s2.5-1,3.9-1c2.2,0,3.9,0.7,5.2,2.1s1.9,3.4,1.9,5.9v1.8h-10.2c0.1,1.1,0.6,1.9,1.3,2.5s1.6,1,2.7,1
		c1.7,0,3-0.6,3.9-1.8l2.1,2.4c-0.6,0.9-1.5,1.6-2.6,2.1C229.6,264.7,228.3,264.9,227,264.9z M226.5,251.7c-0.9,0-1.5,0.3-2.1,0.9
		c-0.5,0.6-0.9,1.4-1,2.5h6v-0.3c0-1-0.3-1.7-0.8-2.2C228.1,252,227.4,251.7,226.5,251.7z"/>
	<path class="st16" d="M248.8,244.6v4h2.8v3.2h-2.8v8c0,0.6,0.1,1,0.3,1.3s0.7,0.4,1.3,0.4c0.5,0,0.9,0,1.3-0.1v3.3
		c-0.8,0.3-1.7,0.4-2.6,0.4c-3,0-4.6-1.5-4.6-4.6v-8.7h-2.4v-3.2h2.4v-4H248.8z"/>
	<path class="st16" d="M263,252.6c-0.6-0.1-1.1-0.1-1.5-0.1c-1.6,0-2.7,0.5-3.2,1.7v10.5h-4.3v-16.1h4.1l0.1,1.9
		c0.9-1.5,2.1-2.2,3.6-2.2c0.5,0,0.9,0.1,1.3,0.2L263,252.6z"/>
	<path class="st16" d="M271.3,258.5l3-10h4.6l-6.5,18.6l-0.4,0.8c-1,2.1-2.5,3.2-4.8,3.2c-0.6,0-1.3-0.1-1.9-0.3v-3.3l0.7,0
		c0.8,0,1.4-0.1,1.8-0.4s0.7-0.7,0.9-1.2l0.5-1.3l-5.6-16.1h4.6L271.3,258.5z"/>
	<path class="st16" d="M297.5,264.6c-0.2-0.4-0.3-0.9-0.4-1.4c-1,1.2-2.4,1.7-4.1,1.7c-1.6,0-2.9-0.5-3.9-1.4
		c-1-0.9-1.6-2.1-1.6-3.5c0-1.7,0.6-3,1.9-3.9c1.3-0.9,3.1-1.4,5.5-1.4h2v-0.9c0-0.7-0.2-1.3-0.6-1.8s-1-0.7-1.8-0.7
		c-0.7,0-1.3,0.2-1.7,0.5c-0.4,0.3-0.6,0.8-0.6,1.4h-4.3c0-0.9,0.3-1.8,0.9-2.6c0.6-0.8,1.4-1.4,2.4-1.9s2.2-0.7,3.5-0.7
		c2,0,3.6,0.5,4.7,1.5c1.2,1,1.7,2.4,1.7,4.2v7c0,1.5,0.2,2.7,0.6,3.5v0.3H297.5z M294,261.6c0.6,0,1.2-0.1,1.8-0.4
		c0.5-0.3,0.9-0.7,1.2-1.1v-2.8h-1.6c-2.2,0-3.3,0.7-3.4,2.2l0,0.3c0,0.5,0.2,1,0.6,1.3C292.8,261.5,293.3,261.6,294,261.6z"/>
	<path class="st16" d="M303.9,256.5c0-2.5,0.6-4.5,1.8-6c1.2-1.5,2.8-2.3,4.8-2.3c1.8,0,3.1,0.6,4.1,1.8l0.2-1.5h3.9v15.6
		c0,1.4-0.3,2.6-1,3.7c-0.6,1-1.5,1.8-2.7,2.4c-1.2,0.5-2.5,0.8-4.1,0.8c-1.2,0-2.3-0.2-3.5-0.7c-1.1-0.5-2-1.1-2.5-1.8l1.9-2.6
		c1.1,1.2,2.4,1.8,3.9,1.8c1.1,0,2-0.3,2.7-0.9c0.6-0.6,1-1.5,1-2.6v-0.9c-1,1.1-2.3,1.7-3.9,1.7c-1.9,0-3.5-0.8-4.7-2.3
		c-1.2-1.5-1.8-3.5-1.8-6V256.5z M308.2,256.8c0,1.5,0.3,2.6,0.9,3.4c0.6,0.8,1.4,1.2,2.4,1.2c1.3,0,2.2-0.5,2.8-1.5v-6.8
		c-0.6-1-1.5-1.5-2.8-1.5c-1,0-1.8,0.4-2.4,1.3C308.5,253.8,308.2,255.1,308.2,256.8z"/>
	<path class="st16" d="M331.3,264.6c-0.2-0.4-0.3-0.9-0.4-1.4c-1,1.2-2.4,1.7-4.1,1.7c-1.6,0-2.9-0.5-3.9-1.4
		c-1-0.9-1.6-2.1-1.6-3.5c0-1.7,0.6-3,1.9-3.9c1.3-0.9,3.1-1.4,5.5-1.4h2v-0.9c0-0.7-0.2-1.3-0.6-1.8s-1-0.7-1.8-0.7
		c-0.7,0-1.3,0.2-1.7,0.5c-0.4,0.3-0.6,0.8-0.6,1.4h-4.3c0-0.9,0.3-1.8,0.9-2.6c0.6-0.8,1.4-1.4,2.4-1.9c1.1-0.5,2.2-0.7,3.5-0.7
		c2,0,3.6,0.5,4.7,1.5c1.2,1,1.7,2.4,1.7,4.2v7c0,1.5,0.2,2.7,0.6,3.5v0.3H331.3z M327.7,261.6c0.6,0,1.2-0.1,1.8-0.4
		c0.5-0.3,0.9-0.7,1.2-1.1v-2.8H329c-2.2,0-3.3,0.7-3.4,2.2l0,0.3c0,0.5,0.2,1,0.6,1.3C326.5,261.5,327,261.6,327.7,261.6z"/>
	<path class="st16" d="M338.2,244.4c0-0.6,0.2-1.2,0.6-1.6c0.4-0.4,1-0.6,1.8-0.6c0.7,0,1.3,0.2,1.8,0.6c0.4,0.4,0.7,0.9,0.7,1.6
		c0,0.7-0.2,1.2-0.7,1.6c-0.4,0.4-1,0.6-1.7,0.6c-0.7,0-1.3-0.2-1.7-0.6C338.5,245.6,338.2,245,338.2,244.4z M342.8,264.6h-4.3
		v-16.1h4.3V264.6z"/>
	<path class="st16" d="M350.3,248.5l0.1,1.9c1.2-1.4,2.7-2.2,4.6-2.2c1.7,0,3,0.5,3.8,1.5c0.8,1,1.3,2.5,1.3,4.5v10.4h-4.3v-10.3
		c0-0.9-0.2-1.6-0.6-2c-0.4-0.4-1.1-0.6-2-0.6c-1.2,0-2.1,0.5-2.7,1.5v11.4h-4.3v-16.1H350.3z"/>
	<path class="st16" d="M375.5,264.6h-4.3v-22.9h4.3V264.6z"/>
	<path class="st16" d="M388.4,264.6c-0.2-0.4-0.3-0.9-0.4-1.4c-1,1.2-2.4,1.7-4.1,1.7c-1.6,0-2.9-0.5-3.9-1.4
		c-1-0.9-1.6-2.1-1.6-3.5c0-1.7,0.6-3,1.9-3.9c1.3-0.9,3.1-1.4,5.5-1.4h2v-0.9c0-0.7-0.2-1.3-0.6-1.8s-1-0.7-1.8-0.7
		c-0.7,0-1.3,0.2-1.7,0.5c-0.4,0.3-0.6,0.8-0.6,1.4h-4.3c0-0.9,0.3-1.8,0.9-2.6c0.6-0.8,1.4-1.4,2.4-1.9c1.1-0.5,2.2-0.7,3.5-0.7
		c2,0,3.6,0.5,4.7,1.5c1.2,1,1.7,2.4,1.7,4.2v7c0,1.5,0.2,2.7,0.6,3.5v0.3H388.4z M384.8,261.6c0.6,0,1.2-0.1,1.8-0.4
		c0.5-0.3,0.9-0.7,1.2-1.1v-2.8h-1.6c-2.2,0-3.3,0.7-3.4,2.2l0,0.3c0,0.5,0.2,1,0.6,1.3C383.7,261.5,384.2,261.6,384.8,261.6z"/>
	<path class="st16" d="M400.6,244.6v4h2.8v3.2h-2.8v8c0,0.6,0.1,1,0.3,1.3c0.2,0.3,0.7,0.4,1.3,0.4c0.5,0,0.9,0,1.3-0.1v3.3
		c-0.8,0.3-1.7,0.4-2.6,0.4c-3,0-4.6-1.5-4.6-4.6v-8.7h-2.4v-3.2h2.4v-4H400.6z"/>
	<path class="st16" d="M413.1,264.9c-2.4,0-4.3-0.7-5.8-2.2c-1.5-1.4-2.2-3.4-2.2-5.8v-0.4c0-1.6,0.3-3.1,0.9-4.3
		c0.6-1.3,1.5-2.3,2.7-2.9s2.5-1,3.9-1c2.2,0,3.9,0.7,5.2,2.1s1.9,3.4,1.9,5.9v1.8h-10.2c0.1,1.1,0.6,1.9,1.3,2.5s1.6,1,2.7,1
		c1.7,0,3-0.6,3.9-1.8l2.1,2.4c-0.6,0.9-1.5,1.6-2.6,2.1C415.7,264.7,414.4,264.9,413.1,264.9z M412.6,251.7c-0.9,0-1.5,0.3-2.1,0.9
		c-0.5,0.6-0.9,1.4-1,2.5h6v-0.3c0-1-0.3-1.7-0.8-2.2C414.2,252,413.5,251.7,412.6,251.7z"/>
	<path class="st16" d="M431.2,252.6c-0.6-0.1-1.1-0.1-1.5-0.1c-1.6,0-2.7,0.5-3.2,1.7v10.5h-4.3v-16.1h4.1l0.1,1.9
		c0.9-1.5,2.1-2.2,3.6-2.2c0.5,0,0.9,0.1,1.3,0.2L431.2,252.6z"/>
	<path class="st16" d="M435.9,260.3c0.7,0,1.3,0.2,1.7,0.6c0.4,0.4,0.7,1,0.7,1.6c0,0.7-0.2,1.2-0.7,1.6c-0.4,0.4-1,0.6-1.7,0.6
		c-0.7,0-1.3-0.2-1.7-0.6c-0.4-0.4-0.7-1-0.7-1.6s0.2-1.2,0.7-1.6C434.6,260.5,435.2,260.3,435.9,260.3z M437.7,258h-3.6l-0.5-15
		h4.6L437.7,258z"/>
</g>
</svg>
